<svg width="659" height="461" viewBox="0 0 659 461" fill="none" xmlns="http://www.w3.org/2000/svg">
<g opacity="0.1">
<g opacity="0.1">
<g opacity="0.1">
<g opacity="0.1">
<g opacity="0.1">
<path opacity="0.1" d="M108.3 320.2C102.9 323.4 102.6 331.2 107.9 334.6L289.2 457.2C295.4 461.4 303.5 461.6 309.8 457.7L621 268.9C626 266 624.4 262.5 619.3 259.8L411.2 147.2C409 146 406.3 145.9 404.1 147.2L108.3 320.2Z" fill="#30475E"/>
</g>
</g>
</g>
</g>
</g>
<path d="M108.3 315.2C102.9 318.4 102.6 326.2 107.9 329.6L289.2 452.2C295.4 456.4 303.5 456.6 309.8 452.7L621 264C626 261.1 624.4 257.6 619.3 254.9L411.2 142.3C409 141.1 406.3 141 404.1 142.3L108.3 315.2Z" fill="#09005D"/>
<path d="M129.3 310.4C124.3 313.3 124.1 320.4 128.9 323.6L296.9 437.4C302.5 441.2 309.9 441.4 315.7 437.8L600 265.4C604.5 262.7 603.1 259.5 598.4 257.1L405.9 152.5C403.9 151.4 401.4 151.3 399.4 152.5L129.3 310.4Z" fill="#FAFAFA"/>
<path d="M287.3 412.9C287.6 413 287.9 413.2 288.2 413.3C289.7 414 291.1 414.7 292.6 415.2C291.1 414.7 289.7 414 288.2 413.3C287.9 413.2 287.6 413.1 287.3 412.9Z" fill="#F86196"/>
<path d="M251 391C252 392.1 253.5 393.1 255 394.2C255.4 394.5 255.8 394.7 256.2 395C255.8 394.7 255.4 394.4 255 394.2C253.5 393.1 252.1 392.1 251 391Z" fill="#F86196"/>
<path d="M297.2 416.4C295.6 416.3 294 415.8 292.6 415.3C294.1 415.8 295.6 416.2 297.2 416.4C298.5 416.5 299.7 416.5 301 416.3C299.7 416.4 298.5 416.5 297.2 416.4Z" fill="#F86196"/>
<path d="M261.2 400.8C261.3 401 261.4 401.3 261.5 401.5C261.7 402 262 402.5 262.2 403C261.9 402.5 261.7 402 261.5 401.5C261.4 401.3 261.3 401 261.2 400.8Z" fill="#F86196"/>
<path d="M271.6 409C272.9 409.2 274.3 409.4 275.6 409.6C276.2 409.7 276.8 409.8 277.3 409.9C276.7 409.8 276.1 409.7 275.6 409.6C274.3 409.4 272.9 409.2 271.6 409Z" fill="#F86196"/>
<path d="M339.8 402.5L341.2 403.6L339.8 402.5Z" fill="#F86196"/>
<path d="M303.6 415.9C304.9 415.7 306.2 415.4 307.4 415.1C308 415 308.5 414.8 309.1 414.7C308.5 414.8 308 415 307.4 415.1C306.2 415.4 304.9 415.7 303.6 415.9Z" fill="#F86196"/>
<path d="M340.8 407C341.5 406.4 342.3 405.8 343.1 405.4C344.4 404.7 345.9 404 347.5 403.4C345.9 404 344.4 404.6 343.1 405.4C342.3 405.8 341.5 406.4 340.8 407Z" fill="#F86196"/>
<path d="M311.1 414.3C312.2 414.1 313.2 413.9 314.3 413.8C315.4 413.7 316.6 413.7 317.8 413.7C316.6 413.7 315.4 413.7 314.3 413.8C313.2 413.9 312.2 414.1 311.1 414.3Z" fill="#F86196"/>
<path d="M340.3 358.7C341.2 358.9 342 359.1 342.8 359.3C342 359 341.1 358.8 340.3 358.7Z" fill="#F86196"/>
<path d="M356.1 399.4C356.3 399.2 356.5 399 356.7 398.8C357.1 398.4 357.4 397.9 357.6 397.4C357.4 397.9 357.1 398.4 356.7 398.8C356.5 399 356.3 399.2 356.1 399.4Z" fill="#F86196"/>
<path d="M329.6 356.8C330.6 357.1 331.7 357.3 332.8 357.5C331.7 357.3 330.6 357.1 329.6 356.8Z" fill="#F86196"/>
<path d="M275.4 356.9C276.2 356.3 277 355.7 277.9 355.3C277 355.7 276.2 356.3 275.4 356.9Z" fill="#F86196"/>
<path d="M350.6 366.7C351 367.5 351.4 368.4 351.9 369.2C351.4 368.4 351 367.5 350.6 366.7Z" fill="#F86196"/>
<path d="M310.9 351.4C308.7 351.6 306.5 352.1 304.4 352.6C302.1 353.1 299.8 353.6 297.5 353.9C299.8 353.7 302.1 353.2 304.4 352.6C306.6 352.1 308.8 351.6 310.9 351.4Z" fill="#F86196"/>
<path d="M294 353.9C292.8 353.9 291.6 353.8 290.4 353.8C289.5 353.8 288.6 353.7 287.7 353.7C288.6 353.7 289.5 353.8 290.4 353.8C291.6 353.9 292.8 353.9 294 353.9Z" fill="#F86196"/>
<path d="M362 380.9C362.2 380.2 362.3 379.4 362.1 378.7C362 378.2 361.7 377.8 361.4 377.3C361.7 377.7 362 378.2 362.1 378.7C362.3 379.4 362.2 380.1 362 380.9Z" fill="#F86196"/>
<path d="M359.6 385.1C359.7 384.9 359.8 384.8 359.9 384.6C360.2 384.1 360.6 383.6 360.9 383.1C360.6 383.6 360.3 384.1 359.9 384.6C359.8 384.8 359.7 384.9 359.6 385.1Z" fill="#F86196"/>
<path d="M336.4 403.3L336.8 403.4L337.5 404.7L336.8 403.4L336.4 403.3Z" fill="#F86196"/>
<path d="M272.1 366L272.8 367.3L272.1 366Z" fill="#F86196"/>
<path d="M275.8 363.8L273.6 364.3L271.7 363.4L273.6 364.3L275.8 363.8Z" fill="#F86196"/>
<path d="M323.1 407.6L320.9 408L319.5 407.5L320.9 408L323.1 407.6Z" fill="#F86196"/>
<path d="M271.7 364.8L269.8 365.6L271.7 364.8Z" fill="#F86196"/>
<path d="M274 358.1C274.5 357.7 274.9 357.3 275.4 356.9C274.9 357.3 274.4 357.7 274 358.1Z" fill="#F86196"/>
<path d="M340.5 401.2L338.3 401.6L336.4 400.8L338.3 401.6L340.5 401.2Z" fill="#F86196"/>
<path d="M319 408.6L317.1 409.4L319 408.6Z" fill="#F86196"/>
<path d="M334.5 403L336.5 402.2L334.5 403Z" fill="#F86196"/>
<path d="M293.9 359.8L292.5 358.7L292.7 358.3L292.5 358.7L293.9 359.8Z" fill="#F86196"/>
<path d="M264.8 373.9L262.6 374.4L261.5 373.9L262.6 374.4L264.8 373.9Z" fill="#F86196"/>
<path d="M258.8 375.7L260.7 374.9L258.8 375.7Z" fill="#F86196"/>
<path d="M276.5 366.2L275.1 365.1L276.5 366.2Z" fill="#F86196"/>
<path d="M289.2 358.4L287.2 359.2L289.2 358.4Z" fill="#F86196"/>
<path d="M293.3 357.4L291 357.8L289.1 357L291 357.8L293.3 357.4Z" fill="#F86196"/>
<path d="M357.6 389.6C357.6 389.3 357.7 388.9 357.8 388.6C357.9 388.3 358 387.9 358.2 387.6C358.1 387.9 357.9 388.3 357.8 388.6C357.7 388.9 357.6 389.3 357.6 389.6Z" fill="#F86196"/>
<path d="M330.7 413.5C331.1 413.4 331.5 413.3 331.9 413.2C332 413.2 332.1 413.1 332.2 413.1C332.1 413.1 332 413.2 331.9 413.2C331.5 413.3 331.1 413.4 330.7 413.5Z" fill="#F86196"/>
<path d="M282.1 353.5C283 353.4 283.9 353.3 284.8 353.3C283.9 353.3 283 353.4 282.1 353.5Z" fill="#F86196"/>
<path d="M324.2 353.9C325.6 354.6 327 355.2 328.5 355.8C327 355.3 325.6 354.6 324.2 353.9Z" fill="#F86196"/>
<path d="M340.6 358.2C342.8 358.6 344.9 359.2 346.6 360.2C344.9 359.2 342.8 358.7 340.6 358.2Z" fill="#F86196"/>
<path d="M258.3 366.1C258.9 365.8 259.4 365.6 260 365.4C259.4 365.6 258.8 365.9 258.3 366.1Z" fill="#F86196"/>
<path d="M305.4 351.8C305 351.9 304.5 352 304.1 352.1C304 352.1 303.9 352.1 303.8 352.2C303.9 352.2 304 352.2 304.1 352.1C304.6 352 305 351.9 305.4 351.8Z" fill="#F86196"/>
<path d="M297.4 353.4C298.5 353.3 299.6 353.1 300.8 352.9C299.7 353.1 298.5 353.2 297.4 353.4C296.3 353.5 295.2 353.5 294 353.5C295.2 353.5 296.3 353.4 297.4 353.4Z" fill="#F86196"/>
<path d="M253.5 377C253.5 376.3 253.4 375.7 253.3 375C253.4 375.6 253.4 376.3 253.5 377Z" fill="#F86196"/>
<path d="M360.3 385.4C360.4 385.2 360.6 385 360.7 384.8C361.2 384 361.7 383.3 362.1 382.5C361.7 383.3 361.2 384 360.7 384.8C360.5 385 360.4 385.2 360.3 385.4Z" fill="#F86196"/>
<path d="M352.1 368C351.8 367.4 351.5 366.7 351.2 366C350.8 365.2 350.5 364.4 350 363.6C350.5 364.4 350.8 365.2 351.2 366C351.5 366.7 351.8 367.4 352.1 368Z" fill="#F86196"/>
<path d="M272.5 358.6C272.4 358.7 272.4 358.7 272.3 358.8C272.4 358.7 272.4 358.7 272.5 358.6Z" fill="#F86196"/>
<path d="M340.9 407.7C340.4 408.1 339.9 408.6 339.4 409C339.9 408.6 340.4 408.2 340.9 407.7Z" fill="#F86196"/>
<path d="M311.4 414.8C311.2 414.8 311 414.9 310.8 414.9C311 414.8 311.2 414.8 311.4 414.8Z" fill="#F86196"/>
<path d="M330 414.1C329 414.2 328.1 414.3 327.1 414.4C328 414.3 329 414.2 330 414.1Z" fill="#F86196"/>
<path d="M252.6 393.2C252.2 392.9 251.8 392.6 251.4 392.2C251.8 392.6 252.2 392.9 252.6 393.2Z" fill="#F86196"/>
<path d="M266.3 363.5C267 363.2 267.6 362.9 268.2 362.6C267.7 362.9 267 363.2 266.3 363.5Z" fill="#F86196"/>
<path d="M256.6 396.1C255.9 395.5 255.1 395 254.3 394.5C255.1 395 255.9 395.6 256.6 396.1Z" fill="#F86196"/>
<path d="M260.5 401.3C260.1 400.4 259.7 399.5 259.1 398.7C259.7 399.5 260.1 400.4 260.5 401.3Z" fill="#F86196"/>
<path d="M281.9 411.3C280.5 410.9 278.8 410.6 277.1 410.3C278.8 410.6 280.5 410.9 281.9 411.3Z" fill="#F86196"/>
<path d="M269.3 361.2C268.9 361.5 268.5 361.7 268.1 362C267.7 362.2 267.2 362.5 266.8 362.7C267.3 362.5 267.7 362.3 268.1 362C268.5 361.8 268.9 361.5 269.3 361.2Z" fill="#F86196"/>
<path d="M251 391C250.4 390.3 250 389.7 249.8 389C250 389.7 250.4 390.4 251 391Z" fill="#F86196"/>
<path d="M249.7 388.3C249.7 387.6 249.9 386.8 250.2 386.1C249.8 386.8 249.6 387.5 249.7 388.3Z" fill="#F86196"/>
<path d="M254.3 377C254.3 376.3 254.2 375.6 254.1 374.9C254.2 375.6 254.3 376.3 254.3 377Z" fill="#F86196"/>
<path d="M255.8 368.3C256.9 367.3 258.6 366.6 260.5 365.8C258.6 366.5 256.9 367.3 255.8 368.3Z" fill="#F86196"/>
<path d="M254 374.1C253.9 373.6 253.9 373 253.9 372.5C253.9 373.1 254 373.6 254 374.1Z" fill="#F86196"/>
<path d="M358.4 389.5C358.4 389.2 358.5 389 358.5 388.7C358.7 388.1 359 387.4 359.4 386.7C359 387.4 358.7 388 358.5 388.7C358.5 388.9 358.5 389.2 358.4 389.5Z" fill="#F86196"/>
<path d="M260.9 400.2C260.5 399.3 260 398.4 259.3 397.7C259.9 398.4 260.4 399.3 260.9 400.2Z" fill="#F86196"/>
<path d="M261.4 403.2C262.2 404.8 263.3 406.3 265.2 407.5C267.2 408.6 269.8 409.3 272.6 409.7C269.9 409.2 267.2 408.6 265.2 407.5C263.3 406.3 262.2 404.8 261.4 403.2Z" fill="#F86196"/>
<path d="M251.8 381.9C251.6 382.2 251.4 382.5 251.2 382.9C251 383.2 250.9 383.4 250.7 383.7C250.9 383.4 251 383.2 251.2 382.9C251.4 382.6 251.6 382.3 251.8 381.9Z" fill="#F86196"/>
<path d="M253.5 377C253.5 377.7 253.5 378.3 253.3 379C253.1 379.6 252.8 380.3 252.4 380.9C252.8 380.2 253.1 379.6 253.3 379C253.4 378.4 253.5 377.7 253.5 377Z" fill="#F86196"/>
<path d="M266.8 362.7C265.4 363.4 263.8 363.9 262.3 364.5C261.5 364.8 260.7 365.1 260 365.4C260.8 365.1 261.5 364.8 262.3 364.5C263.9 363.9 265.4 363.4 266.8 362.7Z" fill="#F86196"/>
<path d="M358.5 391.7C358.4 391 358.4 390.3 358.5 389.7C358.4 390.3 358.4 391 358.5 391.7Z" fill="#F86196"/>
<path d="M356 400.3C356.6 399.9 357.1 399.5 357.5 399.1C357.9 398.6 358.2 398.1 358.4 397.6C358.2 398.1 357.9 398.6 357.5 399.1C357 399.5 356.5 399.9 356 400.3Z" fill="#F86196"/>
<path d="M347.2 404C348 403.7 348.7 403.4 349.5 403.1C349.9 403 350.3 402.8 350.7 402.7C350.3 402.8 349.9 403 349.5 403.1C348.8 403.4 348 403.7 347.2 404Z" fill="#F86196"/>
<path d="M340.6 358.2C339.3 357.9 337.9 357.7 336.5 357.5C334.8 357.3 333.2 357 331.8 356.7C333.3 357 334.9 357.3 336.5 357.5C337.9 357.8 339.2 358 340.6 358.2Z" fill="#F86196"/>
<path d="M286.4 386L283.4 384.3L279.4 386.6L283.4 384.3L286.4 386Z" fill="#F86196"/>
<path d="M284.6 386.8L284.4 386.9L284.6 386.8L282.7 385.7L284.6 386.8Z" fill="#F86196"/>
<path d="M283.2 388L281 386.7L281.6 386.4L281 386.7L283.2 388Z" fill="#F86196"/>
<path d="M292.4 390.4L289.2 392.3L292.4 390.4Z" fill="#F86196"/>
<path d="M291 388.6L294.5 390.7L291 388.6L290.2 389.1L291.5 389.8L290.2 389.1L291 388.6Z" fill="#F86196"/>
<path d="M276.9 382.8C277.2 382.6 277.5 382.5 277.9 382.4C277.5 382.5 277.2 382.7 276.9 382.8C276.3 383.2 276 383.6 276 384C276 383.6 276.3 383.2 276.9 382.8Z" fill="#F86196"/>
<path d="M282.1 384.3C282.1 384.1 282.1 383.8 281.9 383.6C282.1 383.8 282.1 384 282.1 384.3Z" fill="#F86196"/>
<path d="M277.3 384.1C277.3 383.9 277.4 383.7 277.6 383.5C277.4 383.7 277.3 383.9 277.3 384.1Z" fill="#F86196"/>
<path d="M292.9 373.4L306.1 365.7L292.9 373.4L296 375.1L292.9 373.4Z" fill="#F86196"/>
<path d="M277.9 382.5C278.3 382.4 278.6 382.4 279 382.4C278.6 382.3 278.2 382.4 277.9 382.5Z" fill="#F86196"/>
<path d="M279.4 385.9L279.3 385.2C279 385.2 278.7 385.2 278.5 385.1C278.7 385.2 279 385.2 279.3 385.2L279.4 385.9Z" fill="#F86196"/>
<path d="M277.8 384.9C278 385 278.2 385.1 278.5 385.2C278.3 385.1 278 385 277.8 384.9C277.6 384.8 277.5 384.7 277.4 384.5C277.5 384.7 277.7 384.8 277.8 384.9Z" fill="#F86196"/>
<path d="M293.8 394.9L294.3 394.6L293.8 394.9Z" fill="#F86196"/>
<path d="M345.6 392.8L347.5 392.1L345.6 392.8Z" fill="#F86196"/>
<path d="M348.5 394.6L348.9 394.2L348.5 394.6Z" fill="#F86196"/>
<path d="M317.6 392.2L309.8 396.8L317.6 392.2Z" fill="#F86196"/>
<path d="M321.7 392.5L317.5 390.1L321.7 392.5Z" fill="#F86196"/>
<path d="M347.4 390.7L349.3 391.5L347.4 390.7Z" fill="#F86196"/>
<path d="M351.6 391.1L349.3 391.5L351.6 391.1Z" fill="#F86196"/>
<path d="M315.7 391.1L317.5 390.1L315.7 391.1Z" fill="#F86196"/>
<path d="M302.4 395.3L298.4 397.6L302.4 395.3Z" fill="#F86196"/>
<path d="M301.5 394.7L300.6 394.2L301.5 394.7Z" fill="#F86196"/>
<path d="M297.1 395.2L297.9 394.7L296 393.6L297.9 394.7L297.1 395.2Z" fill="#F86196"/>
<path d="M302.3 399L300.1 397.7L300.6 397.4L300.1 397.7L302.3 399Z" fill="#F86196"/>
<path d="M301.8 396.8L303.6 397.8L301.8 396.8L302.6 396.2L301.8 396.8Z" fill="#F86196"/>
<path d="M292.9 394.4L296.9 392.1L292.9 394.4Z" fill="#F86196"/>
<path d="M350.8 392.4L352.2 393.5L350.8 392.4Z" fill="#F86196"/>
<path d="M268.2 377.3C268.7 376.2 269.4 375.2 270.2 374.2C269.4 375.2 268.7 376.3 268.2 377.3Z" fill="#F86196"/>
<path d="M267 380.6C267.2 379.9 267.4 379.2 267.7 378.4C267.4 379.1 267.2 379.8 267 380.6Z" fill="#F86196"/>
<path d="M266.7 382.7C266.8 382 266.9 381.2 267 380.5C266.8 381.3 266.7 382 266.7 382.7Z" fill="#F86196"/>
<path d="M278 367.7C285.6 363.3 295.7 361 305.8 361C295.7 361.1 285.7 363.3 278 367.7C274.7 369.6 272 371.9 270.2 374.2C272.1 371.9 274.7 369.7 278 367.7Z" fill="#F86196"/>
<path d="M313.5 376.9C313.6 377.1 313.7 377.2 313.8 377.4C313.8 377.2 313.7 377 313.5 376.9Z" fill="#F86196"/>
<path d="M310.7 374C310.8 374.2 311 374.4 311.2 374.6C311 374.4 310.8 374.2 310.7 374Z" fill="#F86196"/>
<path d="M314.2 377.9C314.3 378.1 314.4 378.4 314.4 378.6C314.3 378.3 314.3 378.1 314.2 377.9Z" fill="#F86196"/>
<path d="M285.5 403.3C284.6 403 283.8 402.7 283 402.3C283.9 402.6 284.7 403 285.5 403.3Z" fill="#F86196"/>
<path d="M267 386.9C266.9 386.3 266.8 385.7 266.7 385.1C266.7 385.7 266.8 386.3 267 386.9Z" fill="#F86196"/>
<path d="M291.9 405.1C291.4 405 290.9 404.9 290.4 404.7C290.8 404.8 291.3 405 291.9 405.1Z" fill="#F86196"/>
<path d="M267.7 389C267.5 388.5 267.3 387.9 267.2 387.4C267.3 387.9 267.4 388.4 267.7 389Z" fill="#F86196"/>
<path d="M270.8 394C270.5 393.6 270.2 393.3 269.9 392.9C270.2 393.2 270.5 393.6 270.8 394Z" fill="#F86196"/>
<path d="M305.7 378.2C305.9 378.3 306.1 378.4 306.4 378.5C306.1 378.4 305.9 378.3 305.7 378.2C304.9 377.7 304.2 377.2 303.7 376.6C304.2 377.2 304.9 377.7 305.7 378.2Z" fill="#F86196"/>
<path d="M302.7 374.8C302.9 375.4 303.2 376 303.7 376.5C303.2 376 302.8 375.4 302.7 374.8L299.4 375.5C299.4 375.7 299.6 376 299.7 376.2C299.6 376 299.5 375.7 299.4 375.5L302.7 374.8Z" fill="#F86196"/>
<path d="M320.7 375.3C320.3 374.3 319.2 373.2 317.9 372.3C319.3 373.2 320.3 374.2 320.7 375.3Z" fill="#F86196"/>
<path d="M307 378.8C307.4 378.9 307.8 379 308.1 379.1C307.7 379 307.4 378.9 307 378.8Z" fill="#F86196"/>
<path d="M279.3 385.2C279 385.2 278.7 385.2 278.5 385.1C278.3 385 278 385 277.8 384.8C277.6 384.7 277.5 384.6 277.4 384.4C277.3 384.3 277.3 384.1 277.3 384C277.3 383.8 277.4 383.6 277.6 383.4C277.7 383.3 277.8 383.3 277.8 383.2C278.6 382.8 279.6 382.8 280.4 383.2C280.6 383.3 280.7 383.4 280.8 383.6C280.9 383.7 280.9 383.9 280.9 384.1H282C282 383.9 282 383.6 281.8 383.4C281.6 383.2 281.4 382.9 281 382.7C280.7 382.5 280.3 382.4 280 382.3C279.6 382.2 279.3 382.2 278.9 382.1C278.5 382.1 278.1 382.1 277.8 382.2C277.4 382.3 277.1 382.4 276.8 382.6C276.2 383 275.9 383.4 275.9 383.8C275.9 383.9 275.9 384 276 384.1C276.1 384.3 276.3 384.5 276.5 384.7C276.6 384.8 276.8 384.9 276.9 385C277.6 385.4 278.4 385.6 279.3 385.5V385.2Z" fill="#F86196"/>
<path d="M315.7 391.1L317.6 392.2L309.8 396.8L312 398.1L321.7 392.5L317.5 390.1L315.7 391.1Z" fill="#F86196"/>
<path d="M296 375.1L309.1 367.5L306.1 365.7L292.9 373.4L296 375.1Z" fill="#F86196"/>
<path d="M306.6 371.9C306.1 372.5 306.1 373 306.3 373.6C306.5 374.1 306.8 374.5 307.2 375C307.4 375.2 307.5 375.4 307.7 375.5C307.9 375.7 308.1 375.8 308.2 376C308.6 376.3 308.9 376.7 309.2 377C309.7 377.5 310.1 378 310 378.4C310 378.5 309.9 378.6 309.8 378.7C309.7 378.7 309.7 378.8 309.6 378.8C309.2 379 308.7 379.1 308 379C307.7 379 307.3 378.9 306.9 378.7C306.7 378.6 306.5 378.5 306.3 378.4C306.1 378.3 305.9 378.2 305.6 378.1C304.8 377.6 304.1 377.1 303.6 376.5C303.1 375.9 302.7 375.3 302.6 374.8L299.3 375.5C299.3 375.7 299.5 376 299.6 376.2C300.2 377.3 301.5 378.5 303.2 379.5C304.1 380 305.1 380.5 306 380.7C307.8 381.3 309.6 381.3 311 381C311.7 380.9 312.4 380.6 312.9 380.3C314 379.7 314.3 379 314.3 378.4C314.3 378.2 314.2 377.9 314.1 377.7C314 377.5 313.9 377.4 313.8 377.2C313.7 377 313.6 376.9 313.5 376.7C313.3 376.5 313.2 376.3 313 376.2C312.7 375.9 312.5 375.7 312.2 375.4C311.8 375.1 311.5 374.7 311.2 374.4C311 374.2 310.8 374 310.7 373.8C310.6 373.7 310.6 373.6 310.5 373.5C310.5 373.4 310.4 373.4 310.4 373.3C310.4 373.2 310.4 373.2 310.4 373.1C310.4 372.9 310.5 372.7 310.8 372.5C310.9 372.4 311 372.4 311.1 372.3C311.6 372.1 312.2 372.1 312.9 372.3C313.5 372.4 314.1 372.7 314.8 373.1C315.7 373.6 316.4 374.3 317 375C317.2 375.3 317.3 375.5 317.5 375.8L320.8 375C320.4 374 319.3 372.9 318 372C317.8 371.9 317.6 371.7 317.4 371.6C313.6 369.4 309.9 369.5 307.7 370.8C307.2 371.4 306.8 371.6 306.6 371.9Z" fill="#F86196"/>
<path d="M297.1 395.2L297.9 394.7L296 393.6L297.1 393L299.2 394.3L299.9 393.8L296.9 392.1L292.9 394.4L293.8 394.9L294.3 394.6L295.3 394.1L297.1 395.2Z" fill="#F86196"/>
<path d="M360.5 388.8C361.4 385.3 365.9 381.8 365 378.4C364 375 357.9 372.4 355.1 369.3C352.4 366.3 352.5 361.9 348.1 359.3C343.7 356.8 336.1 356.8 330.8 355.3C325.4 353.7 321 350.1 315 349.6C309 349.1 303 351.7 297 352.2C291.1 352.7 283.9 351.3 278.5 352.9C273.3 354.4 271 358.6 266.7 361.2C262.3 363.7 255.1 365 252.5 368.1C249.7 371.3 252.2 375.4 251.3 378.8C250.4 382.3 245.9 385.8 246.8 389.2C247.7 392.6 253.9 395.2 256.7 398.3C259.4 401.3 259.3 405.7 263.7 408.3C268.1 410.8 275.7 410.8 281 412.3C286.4 413.9 290.8 417.5 296.8 418C302.8 418.5 308.8 415.9 314.8 415.4C320.7 414.9 327.9 416.3 333.3 414.7C338.5 413.1 340.8 409 345.1 406.4C349.5 403.9 356.7 402.6 359.3 399.5C362.1 396.4 359.6 392.3 360.5 388.8ZM358.6 388.7C358.5 389 358.5 389.2 358.5 389.5C358.5 389.6 358.5 389.6 358.5 389.7C358.4 390.4 358.5 391 358.5 391.7C358.5 392 358.6 392.4 358.6 392.7C358.7 393.2 358.7 393.8 358.8 394.3C358.9 395.4 358.8 396.5 358.4 397.5C358.2 398 357.9 398.5 357.5 399C357.1 399.4 356.6 399.9 356 400.2C354.9 401 353.4 401.6 351.9 402.2C351.5 402.4 351.1 402.5 350.7 402.6C350.3 402.7 349.9 402.9 349.5 403C348.7 403.3 348 403.6 347.2 403.9C345.9 404.4 344.7 404.9 343.7 405.5C342.7 406.1 341.7 406.8 340.9 407.6C340.4 408 339.9 408.5 339.4 408.9C337.4 410.7 335.4 412.6 332.3 413.5C331.6 413.7 330.8 413.9 330 414C329 414.1 328.1 414.2 327.1 414.3C326.2 414.3 325.2 414.3 324.3 414.3C323.4 414.3 322.4 414.2 321.5 414.2C320.3 414.2 319.1 414.1 317.9 414.1C317.3 414.1 316.7 414.1 316.1 414.1C315.6 414.1 315 414.1 314.5 414.2C313.5 414.3 312.5 414.5 311.4 414.6C311.2 414.6 311 414.7 310.8 414.7C309.8 414.9 308.7 415.1 307.7 415.4C304.2 416.2 300.6 417 297.1 416.7C295.3 416.5 293.7 416.1 292.2 415.5C291.4 415.2 290.7 414.9 289.9 414.6C289.2 414.3 288.4 413.9 287.7 413.6C286.8 413.2 285.8 412.7 284.9 412.3C283.9 411.9 282.9 411.5 281.9 411.2C280.5 410.8 278.8 410.5 277.1 410.2C276.5 410.1 275.9 410 275.4 409.9C274.5 409.8 273.6 409.6 272.6 409.5C269.9 409 267.2 408.4 265.2 407.3C263.2 406.2 262.2 404.6 261.4 403C261.3 402.7 261.1 402.5 261 402.2C260.9 401.9 260.8 401.7 260.6 401.4C260.6 401.3 260.5 401.2 260.5 401.1C260.1 400.2 259.7 399.3 259.1 398.5C258.9 398.2 258.7 397.9 258.4 397.6C258.1 397.3 257.8 397 257.5 396.7C257.2 396.4 256.8 396.1 256.5 395.9C255.8 395.3 255 394.8 254.2 394.3C253.6 393.9 253 393.5 252.4 393C252 392.7 251.6 392.4 251.2 392C250 391 249.1 389.9 248.8 388.8C248.3 387 249.3 385.2 250.5 383.4C250.7 383.1 250.8 382.9 251 382.6C251.2 382.3 251.4 382 251.6 381.6C251.8 381.3 252 380.9 252.2 380.6C252.6 379.9 252.9 379.3 253.1 378.7C253.3 378.1 253.3 377.4 253.3 376.7C253.3 376.7 253.3 376.7 253.3 376.6C253.3 375.9 253.2 375.3 253.1 374.6C253.1 374.3 253 374.1 253 373.8C252.9 372.7 252.8 371.6 253.1 370.6C253.3 369.8 253.6 369.1 254.3 368.3C254.7 367.8 255.2 367.4 255.8 367.1C256.1 366.9 256.4 366.7 256.7 366.5C257.2 366.2 257.7 366 258.2 365.8C258.8 365.5 259.3 365.3 259.9 365.1C260.7 364.8 261.4 364.5 262.2 364.2C263.7 363.6 265.3 363 266.7 362.4C267.2 362.2 267.6 362 268 361.7C268.4 361.5 268.8 361.2 269.2 360.9C269.6 360.6 269.9 360.4 270.3 360.1C271 359.6 271.6 359 272.2 358.4L272.3 358.3C272.3 358.3 272.3 358.3 272.4 358.2C274.1 356.6 275.9 355 278.3 354.1C278.7 354 279 353.8 279.4 353.7C280.2 353.5 281.1 353.3 281.9 353.2C282.8 353.1 283.7 353 284.6 353C286 352.9 287.4 353 288.8 353C289.3 353 289.7 353 290.2 353C291.4 353 292.6 353.1 293.7 353.1C294.9 353.1 296 353.1 297.1 353C298.2 352.9 299.3 352.7 300.5 352.5C301.5 352.3 302.5 352.1 303.6 351.8C303.7 351.8 303.8 351.8 303.9 351.7C304.3 351.6 304.8 351.5 305.2 351.4C306.1 351.2 307 351 307.8 350.9C308.7 350.7 309.6 350.6 310.5 350.5C311.8 350.4 313.2 350.3 314.5 350.4C314.9 350.4 315.4 350.5 315.8 350.6C317.5 350.9 319.1 351.4 320.6 352C321 352.2 321.4 352.3 321.7 352.5C322.4 352.8 323.2 353.2 323.9 353.5C325.3 354.2 326.7 354.8 328.2 355.4C328.7 355.6 329.2 355.8 329.7 355.9C330.3 356.1 330.9 356.2 331.5 356.3C333 356.6 334.6 356.9 336.2 357.1C337.6 357.3 339 357.5 340.3 357.8C342.5 358.2 344.6 358.8 346.3 359.8C348 360.8 349 362 349.7 363.3C350.2 364.1 350.5 364.9 350.9 365.7C351.2 366.4 351.5 367 351.8 367.7C352.1 368.3 352.5 368.9 353 369.5C353.8 370.4 354.9 371.2 356 372C356.4 372.3 356.8 372.5 357.1 372.8C357.7 373.2 358.3 373.6 358.9 374.1C360.6 375.4 362.1 376.7 362.5 378.3C362.9 379.6 362.4 380.9 361.7 382.2C361.3 383 360.8 383.7 360.3 384.5C360.2 384.7 360 384.9 359.9 385.1C359.6 385.5 359.3 386 359.1 386.4C359.1 387.4 358.8 388 358.6 388.7Z" fill="#F86196"/>
<path d="M283.2 381.7C286.1 383.4 290 383.5 293.4 381.5C296.5 379.7 296.5 377.8 293.8 376.2C291.7 375 288.9 374.8 286.9 375.9C285.1 377 285.4 378.5 287.2 379.6C288.2 380.2 289.4 380.5 290.5 380.5C288.6 381.5 286.6 381.5 284.9 380.6C284.2 380.2 283.7 379.8 283.6 379.3L281.1 379.8C281.5 380.4 282.2 381.1 283.2 381.7ZM289.5 379C288.5 378.4 288.4 377.7 289.3 377.2C290.2 376.7 291.4 376.8 292.4 377.3C293.5 377.9 293.5 378.6 292.7 379.1C291.7 379.6 290.5 379.6 289.5 379Z" fill="#F86196"/>
<path d="M303.5 381.8C301.1 380.4 297.5 380.4 294.3 382.3C291.1 384.2 291.1 386.2 293.5 387.6C295.9 389 299.5 389 302.7 387.1C305.8 385.2 305.9 383.2 303.5 381.8ZM300.4 385.8C298.2 387.1 296.5 387.2 295.4 386.5C294.3 385.9 294.4 384.9 296.6 383.6C298.8 382.3 300.5 382.2 301.6 382.9C302.7 383.5 302.6 384.5 300.4 385.8Z" fill="#F86196"/>
<path d="M331 379.8C326.8 377.4 320.8 377.3 316.9 379.6C313 381.9 313.2 385.3 317.3 387.7C321.5 390.1 327.4 390.2 331.4 387.9C335.4 385.7 335.2 382.2 331 379.8ZM328.3 386.2C325.8 387.7 322.3 387.6 319.9 386.3C317.5 384.9 317.5 382.9 320 381.5C322.5 380 326 380.1 328.4 381.4C330.8 382.7 330.8 384.7 328.3 386.2Z" fill="#F86196"/>
<path d="M289 387.5L287.3 386.5L283.3 388.8L284.2 389.3L285.3 388.7L286.1 389.2L285.8 390.3L286.8 390.9L287.2 389.6C287.9 389.8 288.7 389.7 289.3 389.3C290.2 388.8 290.1 388.1 289 387.5ZM288.3 388.8C287.9 389.1 287.3 389 286.7 388.7L285.9 388.3L287.3 387.5L288.1 387.9C288.7 388.2 288.8 388.6 288.3 388.8Z" fill="#F86196"/>
<path d="M293.7 391.1L294.5 390.7L291 388.6L290.2 389.1L291.5 389.8L288.2 391.7L289.2 392.3L292.4 390.4L293.7 391.1Z" fill="#F86196"/>
<path d="M295 391L291 393.3L291.9 393.8L295.9 391.5L295 391Z" fill="#F86196"/>
<path d="M302.9 393.1C305.3 394.5 308.9 394.5 312.1 392.6C315.3 390.7 315.3 388.7 312.9 387.3C310.5 385.9 306.9 385.9 303.7 387.8C300.5 389.6 300.5 391.7 302.9 393.1ZM306 389.1C308.2 387.8 309.9 387.7 311 388.4C312.1 389.1 312 390 309.8 391.3C307.6 392.6 305.9 392.7 304.8 392C303.7 391.3 303.8 390.3 306 389.1Z" fill="#F86196"/>
<path d="M301.5 394.7L300.6 394.2L296.5 396.5L297.5 397.1L301.5 394.7Z" fill="#F86196"/>
<path d="M302.3 399L300.1 397.7L300.6 397.4L301 397.2L302.9 398.3L303.6 397.8L301.8 396.8L302.6 396.2L304.8 397.5L305.5 397L302.4 395.3L298.4 397.6L301.6 399.4L302.3 399Z" fill="#F86196"/>
<path d="M308.2 398.6L306.4 397.5L302.4 399.8L304.2 400.9C305.5 401.7 307.2 401.7 308.4 401C309.6 400.3 309.5 399.3 308.2 398.6ZM307.4 400.5C306.6 400.9 305.6 400.9 304.8 400.5L303.9 400L306.4 398.6L307.3 399.1C308.1 399.4 308.2 400 307.4 400.5Z" fill="#F86196"/>
<path d="M359.9 384.6C360.2 384.1 360.6 383.6 360.9 383.1C361.4 382.4 361.8 381.6 362 380.9C362.2 380.2 362.3 379.4 362.1 378.7C362 378.2 361.7 377.8 361.4 377.3C361.2 377.1 361.1 376.9 360.9 376.6C360.5 376.2 360 375.7 359.5 375.3C359.2 375.1 359 374.9 358.7 374.7C358.1 374.3 357.5 373.9 356.9 373.4C356.5 373.1 356.1 372.9 355.7 372.6C354.9 372 354.2 371.5 353.5 370.9C353.2 370.6 352.9 370.3 352.6 370C352.3 369.7 352.1 369.4 351.9 369.1C351.4 368.3 351 367.5 350.6 366.6C350.5 366.4 350.4 366.3 350.4 366.1C349.8 364.8 349.2 363.5 348.3 362.3C347.7 361.6 347 361 346.1 360.4C345.2 359.9 344.1 359.4 342.9 359.1C342.1 358.9 341.3 358.7 340.4 358.5C340 358.4 339.5 358.3 339.1 358.3C338.2 358.2 337.3 358 336.4 357.9C335.3 357.7 334.1 357.6 333 357.4C331.9 357.2 330.8 357 329.8 356.7C329.3 356.5 328.8 356.4 328.2 356.2C326.7 355.6 325.2 354.9 323.8 354.3C320.9 352.9 318.1 351.6 314.8 351.3C313.6 351.2 312.3 351.2 311.1 351.4C308.9 351.6 306.7 352.1 304.6 352.6C302.3 353.1 300 353.6 297.7 353.9C297.1 354 296.6 354 296 354C295.4 354 294.8 354 294.2 354C293 354 291.8 353.9 290.6 353.9C289.7 353.9 288.8 353.8 287.9 353.8C286.5 353.8 285.2 353.8 283.9 353.9C282.6 354 281.4 354.2 280.2 354.5C279.5 354.7 278.8 355 278.2 355.3C277.3 355.8 276.5 356.3 275.7 356.9C275.2 357.3 274.7 357.7 274.3 358.1C274 358.4 273.7 358.6 273.5 358.9C272.2 360.1 270.8 361.4 269.1 362.4C269 362.5 268.8 362.6 268.6 362.6C268 362.9 267.4 363.2 266.7 363.5C265.5 364 264.3 364.5 263.1 364.9C262.7 365 262.3 365.2 261.9 365.3C261.5 365.4 261.1 365.6 260.8 365.7C258.9 366.4 257.3 367.2 256.1 368.2C255.9 368.4 255.7 368.6 255.5 368.8C254.5 369.9 254.3 371.2 254.3 372.5C254.3 373 254.3 373.6 254.4 374.1C254.4 374.4 254.5 374.6 254.5 374.9C254.6 375.6 254.7 376.3 254.7 377C254.7 377.7 254.7 378.4 254.5 379C254.1 380.3 253.2 381.7 252.4 383C251.7 384 251.1 385 250.6 386C250.3 386.7 250.1 387.5 250.1 388.2C250.1 388.4 250.1 388.7 250.2 388.9C250.4 389.6 250.8 390.3 251.4 390.9C252.4 392 253.9 393 255.4 394.1C255.8 394.4 256.2 394.6 256.6 394.9C257.8 395.7 258.9 396.6 259.7 397.5C260.4 398.3 260.9 399.1 261.3 400C261.4 400.2 261.5 400.4 261.6 400.6C261.7 400.8 261.8 401.1 261.9 401.3C262.1 401.8 262.4 402.3 262.6 402.8C263.1 403.8 263.7 404.8 264.6 405.7C265.1 406.1 265.6 406.5 266.2 406.9C267.8 407.8 269.8 408.3 271.9 408.8C273.2 409 274.6 409.2 275.9 409.4C276.5 409.5 277.1 409.6 277.6 409.7C278.8 409.9 279.9 410.1 281 410.3C281.5 410.4 282.1 410.6 282.6 410.7C284.4 411.2 286 412 287.6 412.7C287.9 412.8 288.2 413 288.5 413.1C290 413.8 291.4 414.5 292.9 415C294.4 415.5 295.9 415.9 297.5 416.1C298.8 416.2 300 416.2 301.3 416C302.2 415.9 303 415.8 303.9 415.6C305.2 415.4 306.5 415.1 307.7 414.8C308.3 414.7 308.8 414.5 309.4 414.4C310.1 414.3 310.7 414.1 311.4 414C312.5 413.8 313.5 413.6 314.6 413.5C315.7 413.4 316.9 413.4 318.1 413.4C319.3 413.4 320.5 413.5 321.7 413.5C322.6 413.5 323.5 413.6 324.4 413.6C324.9 413.6 325.3 413.6 325.8 413.6C326.3 413.6 326.7 413.6 327.1 413.6C328.4 413.6 329.7 413.4 330.9 413.2C331.3 413.1 331.7 413 332.1 412.9C332.2 412.9 332.3 412.8 332.4 412.8C335.2 411.9 337 410.2 338.9 408.5C339.2 408.2 339.6 407.9 339.9 407.6C340.2 407.3 340.6 407 341 406.7C341.7 406.1 342.5 405.5 343.3 405.1C344.6 404.4 346.1 403.7 347.7 403.1C348.2 402.9 348.7 402.7 349.3 402.5C351.7 401.6 353.9 400.8 355.5 399.7C355.8 399.5 356 399.3 356.2 399.1C356.4 398.9 356.6 398.7 356.8 398.5C357.2 398.1 357.5 397.6 357.7 397.1C357.9 396.6 358 396.1 358 395.6C358.1 394.6 358 393.5 357.9 392.4C357.9 392.1 357.8 391.7 357.8 391.4C357.7 390.7 357.7 390 357.8 389.3C357.8 389 357.9 388.6 358 388.3C358.1 388 358.2 387.6 358.4 387.3C358.8 386.5 359.3 385.6 359.9 384.8C359.7 384.9 359.8 384.8 359.9 384.6ZM263.1 376.3L261.7 377.4L261 376.1L258.7 375.7L260.6 374.9V373.5L261.4 373.8L262.5 374.3L264.7 373.9L264 375.2L265.4 376.3H263.1ZM289.2 358.4V357L291.1 357.8L293.3 357.4L292.8 358.3L292.6 358.7L294 359.8H291.7L290.3 360.9L289.6 359.6L287.3 359.2L289.2 358.4ZM271.7 364.8V363.4L273.6 364.2L275.8 363.8L275.1 365.1L276.5 366.2H274.1L272.7 367.3L272 366L269.7 365.6L271.7 364.8ZM321.4 410L320 411.1L319.3 409.8L317 409.4L318.9 408.6V407.3L319.5 407.5L320.8 408.1L323 407.7L322.3 409L323.7 410.1L321.4 410ZM341.2 403.6H338.8L337.4 404.7L336.7 403.4L336.4 403.3L334.5 403L336.4 402.2V400.8L338.3 401.6L340.5 401.2L339.8 402.5L341.2 403.6ZM341.7 393.4C341.2 394.1 340.6 394.7 339.9 395.4C338.3 397 336.2 398.5 333.9 399.9C330.1 402.1 325.7 403.8 320.9 404.9C316.2 406 311.1 406.6 306.1 406.6C303.6 406.6 301.1 406.5 298.6 406.2C296.3 405.9 294.1 405.6 291.9 405.1C291.4 405 290.9 404.9 290.4 404.7C288.8 404.3 287.2 403.8 285.6 403.3C284.7 403 283.9 402.7 283.1 402.3C281.4 401.6 279.8 400.8 278.3 400C275.9 398.6 273.9 397.1 272.2 395.5C271.7 395 271.3 394.6 270.9 394.1C270.6 393.7 270.3 393.4 270 393C269.1 391.7 268.3 390.4 267.8 389.1C267.6 388.6 267.4 388 267.3 387.5C267.3 387.3 267.2 387.2 267.2 387C267.1 386.4 267 385.8 266.9 385.2C266.9 384.8 266.8 384.4 266.8 384C266.8 383.6 266.8 383.3 266.8 382.9C266.9 382.2 267 381.4 267.1 380.7C267.3 380 267.5 379.3 267.8 378.5C267.9 378.1 268.1 377.8 268.3 377.4C268.8 376.3 269.5 375.3 270.3 374.3C272.2 371.9 274.8 369.7 278.1 367.8C285.7 363.4 295.8 361.1 305.9 361.1C316 361.1 326.1 363.3 333.8 367.8C335.7 368.9 337.4 370.1 338.9 371.4C339.3 371.7 339.6 372 339.9 372.4C340.9 373.4 341.8 374.4 342.5 375.4C342.7 375.7 343 376.1 343.2 376.4C343.6 377.1 344 377.8 344.3 378.5C346.2 383.4 345.4 388.7 341.7 393.4ZM349.9 393.4L349 394.2L348.6 394.5L347.9 393.2L345.6 392.8L347.5 392V390.6L349.4 391.4L351.6 391L350.9 392.3L352.3 393.4H349.9Z" fill="#F86196"/>
<path d="M283.2 388L281 386.7L281.6 386.4L282 386.2L283.8 387.2L284.4 386.9L284.6 386.8L282.7 385.7L283.6 385.2L285.7 386.5L286.4 386L283.4 384.3L279.4 386.6L282.5 388.4L283.2 388Z" fill="#F86196"/>
<path d="M299 320.9C300 321.5 300 322.4 299 323C298 323.6 296.3 323.6 295.3 323L223 281.3C222 280.7 222 279.8 223 279.2C224 278.6 225.6 278.6 226.7 279.2L299 320.9Z" fill="#565656"/>
<path d="M441 238.3C442 238.9 442 239.8 441 240.4C440 241 438.3 241 437.3 240.4L365 198.7C364 198.1 364 197.2 365 196.6C366 196 367.7 196 368.7 196.6L441 238.3Z" fill="#565656"/>
<path d="M332 242.4C332.4 242.7 332.7 243 332.7 243.4C332.7 244.2 331.6 244.8 330.2 244.8H313.6H301V238.6C301 237.8 302.1 237.2 303.5 237.2C304.2 237.2 304.8 237.4 305.2 237.6C305.6 237.9 305.9 238.2 305.9 238.6V241.9H318.3H330.1C330.9 242 331.5 242.2 332 242.4Z" fill="#F86196"/>
<path d="M317.8 238.9C319.3 239.8 319.5 241.1 318.4 242H306V238.7C306 238.3 305.7 237.9 305.3 237.7C304.9 237.4 304.2 237.3 303.6 237.3C302.2 237.3 301.1 237.9 301.1 238.7V244.9H313.7L310.1 247C308.4 248 305.6 248 303.9 247L296.1 242.5C294.4 241.5 294.4 239.9 296.1 238.9L303.8 234.4C305.5 233.4 308.3 233.4 310 234.4L317.8 238.9Z" fill="#565656"/>
<path d="M306.2 257.4C306.6 257.7 306.9 258 306.9 258.4C306.9 259.2 305.8 259.8 304.4 259.8H287.8H275.2V253.6C275.2 252.8 276.3 252.2 277.7 252.2C278.4 252.2 279 252.4 279.4 252.6C279.8 252.9 280.1 253.2 280.1 253.6V256.9H292.5H304.3C305.1 257 305.7 257.2 306.2 257.4Z" fill="#F86196"/>
<path d="M292 253.9C293.5 254.8 293.7 256.1 292.6 257H280.2V253.7C280.2 253.3 279.9 252.9 279.5 252.7C279.1 252.4 278.4 252.3 277.8 252.3C276.4 252.3 275.3 252.9 275.3 253.7V259.9H287.9L284.3 262C282.6 263 279.8 263 278.1 262L270.3 257.5C268.6 256.5 268.6 254.9 270.3 253.9L278 249.4C279.7 248.4 282.5 248.4 284.2 249.4L292 253.9Z" fill="#565656"/>
<path d="M547.3 261.9C548.3 262.5 548.3 263.4 547.3 264C546.3 264.6 544.6 264.6 543.6 264L397.7 179.8C396.7 179.2 396.7 178.3 397.7 177.7C398.7 177.1 400.3 177.1 401.4 177.7L547.3 261.9Z" fill="#565656"/>
<path d="M540.8 265.7C541.8 266.3 541.8 267.2 540.8 267.8C539.8 268.4 538.2 268.4 537.1 267.8L391.2 183.6C390.2 183 390.2 182.1 391.2 181.5C392.2 180.9 393.9 180.9 394.9 181.5L540.8 265.7Z" fill="#565656"/>
<path d="M346.8 265.4C347.4 265.8 347.4 266.3 346.8 266.7L345.4 267.5C344.8 267.9 343.8 267.9 343.1 267.5L322.3 255.5C321.7 255.1 321.7 254.5 322.3 254.2L323.7 253.4C324.3 253 325.3 253 326 253.4L346.8 265.4Z" fill="#565656"/>
<path d="M393.2 266.1C394.2 266.7 394.2 267.6 393.2 268.2C392.2 268.8 390.5 268.8 389.5 268.2L317.2 226.5C316.2 225.9 316.2 225 317.2 224.4C318.2 223.8 319.9 223.8 320.9 224.4L393.2 266.1Z" fill="#565656"/>
<path d="M534.3 269.5C535.3 270.1 535.3 271 534.3 271.6C533.3 272.2 531.7 272.2 530.6 271.6L384.7 187.4C383.7 186.8 383.7 185.9 384.7 185.3C385.7 184.7 387.4 184.7 388.4 185.3L534.3 269.5Z" fill="#565656"/>
<path d="M527.8 273.2C528.8 273.8 528.8 274.7 527.8 275.3C526.8 275.9 525.1 275.9 524.1 275.3L378.2 191.1C377.2 190.5 377.2 189.6 378.2 189C379.2 188.4 380.9 188.4 381.9 189L527.8 273.2Z" fill="#565656"/>
<path d="M375.8 274.5C376.4 274.9 376.4 275.5 375.8 275.8L374.4 276.6C373.8 277 372.8 277 372.1 276.6L329 251.7C328.4 251.3 328.4 250.7 329 250.4L330.4 249.6C331 249.2 332 249.2 332.7 249.6L375.8 274.5Z" fill="#565656"/>
<path d="M521.3 277C522.3 277.6 522.3 278.5 521.3 279.1C520.3 279.7 518.6 279.7 517.6 279.1L371.7 194.9C370.7 194.3 370.7 193.4 371.7 192.8C372.7 192.2 374.4 192.2 375.4 192.8L521.3 277Z" fill="#565656"/>
<path d="M321 280.4C321.6 280.8 321.6 281.4 321 281.7L319.7 282.5C319.1 282.9 318.1 282.9 317.4 282.5L296.6 270.5C296 270.1 296 269.6 296.6 269.2L297.9 268.4C298.5 268 299.5 268 300.2 268.4L321 280.4Z" fill="#565656"/>
<path d="M407.8 286.2C408.2 286.5 408.5 286.8 408.5 287.2C408.5 288 407.4 288.6 406 288.6H389.4H376.8V282.4C376.8 281.6 377.9 281 379.3 281C380 281 380.6 281.2 381 281.4C381.4 281.7 381.7 282 381.7 282.4V285.7H394.1H405.9C406.7 285.8 407.4 286 407.8 286.2Z" fill="#F86196"/>
<path d="M393.6 282.7C395.1 283.6 395.3 284.9 394.2 285.8H381.8V282.5C381.8 282.1 381.5 281.7 381.1 281.5C380.7 281.2 380 281.1 379.4 281.1C378 281.1 376.9 281.7 376.9 282.5V288.7H389.5L385.9 290.8C384.2 291.8 381.4 291.8 379.7 290.8L371.9 286.3C370.2 285.3 370.2 283.7 371.9 282.7L379.6 278.2C381.3 277.2 384.1 277.2 385.8 278.2L393.6 282.7Z" fill="#565656"/>
<path d="M350 289.5C350.6 289.9 350.6 290.4 350 290.8L348.7 291.6C348.1 292 347.1 292 346.4 291.6L303.2 266.7C302.6 266.3 302.6 265.7 303.2 265.4L304.5 264.6C305.1 264.2 306.1 264.2 306.8 264.6L350 289.5Z" fill="#565656"/>
<path d="M499.4 289.7C500.4 290.3 500.4 291.2 499.4 291.8C498.4 292.4 496.7 292.4 495.7 291.8L349.8 207.6C348.8 207 348.8 206.1 349.8 205.5C350.8 204.9 352.5 204.9 353.5 205.5L499.4 289.7Z" fill="#565656"/>
<path d="M493 293.5C494 294.1 494 295 493 295.6C492 296.2 490.3 296.2 489.3 295.6L343.4 211.4C342.4 210.8 342.4 209.9 343.4 209.3C344.4 208.7 346.1 208.7 347.1 209.3L493 293.5Z" fill="#565656"/>
<path d="M486.5 297.2C487.5 297.8 487.5 298.7 486.5 299.3C485.5 299.9 483.8 299.9 482.8 299.3L336.9 215.1C335.9 214.5 335.9 213.6 336.9 213C337.9 212.4 339.5 212.4 340.6 213L486.5 297.2Z" fill="#565656"/>
<path d="M480 301C481 301.6 481 302.5 480 303.1C479 303.7 477.3 303.7 476.3 303.1L330.4 218.9C329.4 218.3 329.4 217.4 330.4 216.8C331.4 216.2 333 216.2 334.1 216.8L480 301Z" fill="#565656"/>
<path d="M382 301.2C382.4 301.5 382.7 301.8 382.7 302.2C382.7 303 381.6 303.6 380.2 303.6H363.6H351.1V297.4C351.1 296.6 352.2 296 353.6 296C354.3 296 354.9 296.2 355.3 296.4C355.7 296.7 356 297 356 297.4V300.7H368.4H380.2C381 300.8 381.6 300.9 382 301.2Z" fill="#F86196"/>
<path d="M367.8 297.6C369.3 298.5 369.5 299.8 368.4 300.7H356V297.4C356 297 355.7 296.6 355.3 296.4C354.9 296.1 354.2 296 353.6 296C352.2 296 351.1 296.6 351.1 297.4V303.6H363.6L360 305.7C358.3 306.7 355.5 306.7 353.8 305.7L346 301.2C344.3 300.2 344.3 298.6 346 297.6L353.7 293.1C355.4 292.1 358.2 292.1 359.9 293.1L367.8 297.6Z" fill="#565656"/>
<path d="M473.5 304.8C474.5 305.4 474.5 306.3 473.5 306.9C472.5 307.5 470.9 307.5 469.8 306.9L324 222.6C323 222 323 221.1 324 220.5C325 219.9 326.7 219.9 327.7 220.5L473.5 304.8Z" fill="#565656"/>
<path d="M422.7 309.2C423.3 309.6 423.3 310.1 422.7 310.5L421.3 311.3C420.7 311.7 419.7 311.7 419 311.3L398.2 299.3C397.6 298.9 397.6 298.3 398.2 298L399.6 297.2C400.2 296.8 401.2 296.8 401.9 297.2L422.7 309.2Z" fill="#565656"/>
<path d="M451.6 318.3C452.2 318.7 452.2 319.3 451.6 319.6L450.2 320.4C449.6 320.8 448.6 320.8 447.9 320.4L404.7 295.5C404.1 295.1 404.1 294.5 404.7 294.2L406.1 293.4C406.7 293 407.7 293 408.4 293.4L451.6 318.3Z" fill="#565656"/>
<path d="M396.9 324.2C397.5 324.6 397.5 325.2 396.9 325.5L395.6 326.3C395 326.7 394 326.7 393.3 326.3L372.5 314.3C371.9 313.9 371.9 313.4 372.5 313L373.8 312.2C374.4 311.8 375.4 311.8 376.1 312.2L396.9 324.2Z" fill="#565656"/>
<path d="M425.9 333.3C426.5 333.7 426.5 334.2 425.9 334.6L424.6 335.4C424 335.8 423 335.8 422.3 335.4L379.1 310.5C378.5 310.1 378.5 309.5 379.1 309.2L380.4 308.4C381 308 382 308 382.7 308.4L425.9 333.3Z" fill="#565656"/>
<path d="M405.2 344.5C406.2 345.1 406.2 346 405.2 346.6C404.2 347.2 402.6 347.2 401.5 346.6L255.6 262.4C254.6 261.8 254.6 260.9 255.6 260.3C256.6 259.7 258.3 259.7 259.3 260.3L405.2 344.5Z" fill="#565656"/>
<path d="M398.7 348.2C399.7 348.8 399.7 349.7 398.7 350.3C397.7 350.9 396 350.9 395 350.3L249.1 266.1C248.1 265.5 248.1 264.6 249.1 264C250.1 263.4 251.8 263.4 252.8 264L398.7 348.2Z" fill="#565656"/>
<path d="M392.3 352C393.3 352.6 393.3 353.5 392.3 354.1C391.3 354.7 389.6 354.7 388.6 354.1L242.7 269.9C241.7 269.3 241.7 268.4 242.7 267.8C243.7 267.2 245.4 267.2 246.4 267.8L392.3 352Z" fill="#565656"/>
<path d="M385.8 355.8C386.8 356.4 386.8 357.3 385.8 357.9C384.8 358.5 383.1 358.5 382.1 357.9L236.2 273.7C235.2 273.1 235.2 272.2 236.2 271.6C237.2 271 238.9 271 239.9 271.6L385.8 355.8Z" fill="#565656"/>
<path d="M379.3 359.5C380.3 360.1 380.3 361 379.3 361.6C378.3 362.2 376.6 362.2 375.6 361.6L229.7 277.4C228.7 276.8 228.7 275.9 229.7 275.3C230.7 274.7 232.4 274.7 233.4 275.3L379.3 359.5Z" fill="#565656"/>
<path opacity="0.07" d="M628.5 321.1C649.4 333.2 662.1 350.3 656.8 359.4C651.5 368.5 630.3 366.1 609.5 354.1C588.6 342 575.9 324.9 581.2 315.8C586.4 306.7 607.6 309.1 628.5 321.1Z" fill="#30475E"/>
<path d="M617.9 318.6C617.9 318.6 618.1 320.3 618.5 321.7C618.9 323.1 619.2 325.4 619 326.6C618.7 327.7 615.5 329.4 613.7 329.6C611.9 329.8 609.1 331.8 608.1 333.1C606.6 335 602.7 336.4 600.2 336.1C597.7 335.8 594.8 335.2 594.2 334.2C593.6 333.2 594.4 332 599.7 328.3C605 324.5 608.6 322.2 610.2 318.7L617.9 318.6Z" fill="#37474F"/>
<path d="M632.4 346.8C631.1 348.7 628.8 349.6 626.5 350C625.3 350.2 624.1 350.2 622.8 350.1C621.5 350.1 619.5 349.3 619.6 347.7C619.6 347.2 620 346.7 620.3 346.3C622.4 343.6 624.6 341 626.5 338.2C628.6 335 630.8 332 631.5 327.2L639.5 327.3C639.5 328 639.7 328.9 639.8 329.8C639.9 330.7 640.2 331.6 640.4 332.4C640.8 334.1 641.1 335.9 640.2 337.6C639.5 338.8 638.2 339.5 637.1 340.4C635.1 342.2 633.9 344.6 632.4 346.8Z" fill="#37474F"/>
<path d="M575.5 176.5L590.8 196.2C592.2 198.1 595.1 198 596.5 196.2L600.6 190.8L594.7 182.2L593.6 183.9L576.2 171.2L575.5 176.5Z" fill="#FFCCBC"/>
<path d="M576.3 171.2L576 170C575.7 168.7 574.9 167.6 573.8 166.9C573.8 166.9 573.8 163.1 573.2 162.2C572.3 161 571.2 164.6 571.3 165.4C571.3 165.5 571.4 166.8 571.5 166.8L569.2 166.5C568.3 166.4 567.6 167 567.5 167.9L567.1 172.3C567 173.4 567.8 174.5 568.8 174.9C569.6 175.2 570.5 174.6 571.1 174.2L571.8 175.2C572.7 176.1 574 176.6 575.3 176.6H575.6L576.3 171.2Z" fill="#FFCCBC"/>
<path d="M571.2 168.9L571.9 171.2L574.4 173.6L571.8 172.2L571.1 173.9L571.2 171.8V168.9Z" fill="#FFAB91"/>
<path d="M617.7 214.4L619.7 228.2L617.7 241.9L616.8 269.6L619.7 286.9L617.7 319.4C617.6 321 616.5 322.3 614.9 322.5L614.6 322.6C612.7 323 610.8 321.6 610.6 319.7L605.1 277.2L599.4 233.1L599.7 216L617.7 214.4Z" fill="#486A8C"/>
<path d="M593.7 182.9L601.8 146.4C602.8 140.3 608.5 140.5 608.5 140.5C613.4 140.2 617.2 144.6 616.2 149.3L605.9 192.4C605.4 194.6 602.5 195.3 601.1 193.5C598.4 190.4 596.5 184.7 593.7 182.9Z" fill="url(#paint0_linear)"/>
<path d="M639.2 220.1L639.6 221.6C641.7 229.6 641.7 238.1 639.6 246.1L639.2 247.6L638.3 275.3L641.2 292.6L639.8 327.8C639.7 329.7 638.1 331.1 636.3 331H635.1C633.4 330.9 632 329.7 631.8 328L626.6 282.9L614.3 237.9L612.8 222.3L639.2 220.1Z" fill="#486A8C"/>
<path d="M601.4 156.5C600.3 172.6 597.3 197.7 598.4 220.1C598.8 225.7 625.1 235.3 641.1 221.4C636.2 192.7 639.9 177 643.9 154.2C644.5 150.5 643.1 146.8 640.2 144.6L626.9 135.7L618 136.4L611.1 138.6C608.4 139.5 602.1 145.7 601.4 156.5ZM614.5 192.5V193.3V192.5Z" fill="url(#paint1_linear)"/>
<path d="M609.3 119.1C607.8 116.4 606.9 113.4 606.5 110.4C606.2 108 605 105.4 606.1 103.2C607.1 101 609.4 99.5001 611.9 99.3001C614.3 99.2001 616.8 100.5 618 102.6C621 101.9 623.8 102.2 626.6 103.5C627.6 103.9 628.5 104.5 629.1 105.4C629.7 106.3 630 107.4 629.6 108.4C631 108.8 632 109.8 632.7 111.1C633.5 112.7 633.5 114.6 633 116.3C632.5 118 631.7 119.6 630.8 121.1C629.3 123.8 626.9 126.3 625.2 128.9C619.1 127.2 612.3 124.6 609.3 119.1Z" fill="#212121"/>
<path d="M614.2 136.7L614.6 131.7L626.3 126.9L626.6 130.9C623.4 134.4 618.7 137.3 614.2 136.7Z" fill="#FFAB91"/>
<path d="M626.6 130.8L627 136.6L619 142.8C618.4 143.3 617.6 143.4 616.9 143.2C616.3 143 615.8 142.7 615.4 142.1L614.3 140.4C614.1 140 613.9 139.6 613.9 139.1L614.1 136.5C618.7 137.3 623.4 134.4 626.6 130.8Z" fill="#FFCCBC"/>
<path d="M608.6 110.1H623.6L624.1 115.1L625.2 117.1V122.1L626.7 121.6C627 121 627.2 118.3 627.9 118.2C631.4 117.3 629.7 122.2 629.4 123.1C629.1 124.1 628 124.5 627.1 123.9V127.2C627.1 128.8 626.4 130.4 625.1 131.4C623.2 132.9 620.1 134.9 616.5 134.9C610.6 134.9 609 129.9 609 129.9L608.2 116.3L608.6 110.1Z" fill="#FFCCBC"/>
<path d="M585.4 179.6L602.7 189.6L607.6 213.2L606.6 213.8L592.2 204.3L584.4 180.1L585.4 179.6Z" fill="#30475E"/>
<path d="M584.4 180.1L601.7 190.1L606.6 213.8L591.3 204.9L584.4 180.1Z" fill="#192531"/>
<path d="M644 150.9L648.5 194.3C648.8 196.1 647.7 197.8 646.1 198.4L614.2 207L612.9 202.3L634.2 191.2C635.7 190.5 635.3 189.9 635 188.2L629.6 153.1C628.4 147.1 633.8 145.3 633.8 145.3C638.2 143.3 643.3 146.1 644 150.9Z" fill="#FFCCBC"/>
<path d="M634.6 191L629.5 153.2C628.3 147.2 633.7 145.4 633.7 145.4C638.1 143.4 643.3 146.1 644 151L649.3 194.1C649.4 195.1 649.2 196.1 648.7 197C645.2 202.6 639.1 191.9 634.6 191Z" fill="url(#paint2_linear)"/>
<path d="M597.3 198C597 198 596.8 197.8 596.7 197.6L596.1 196.7L605.5 197.4L615.5 202.3L614.2 207.1L608.2 206.7L603.5 204L599.6 205.6C599.4 205.7 599.1 205.7 598.9 205.6L598 205L603 202.6V202.3L598.1 203.7C597.8 203.8 597.6 203.7 597.3 203.6L596.5 203L602.9 200.7V200.4L596.1 200.7C595.8 200.7 595.5 200.6 595.4 200.4L594.8 199.6L602.9 198.8V198.7L597.3 198Z" fill="#FFCCBC"/>
<path opacity="0.6" d="M156.4 69.3L210.8 37.9C212.6 36.9 214 37.7 214 39.8V79.2C214 81.3 212.5 83.8 210.8 84.8L156.4 116.2C154.6 117.2 153.2 116.4 153.2 114.3V74.9C153.2 72.8 154.7 70.3 156.4 69.3Z" fill="white" stroke="url(#paint3_linear)" stroke-miterlimit="10"/>
<path d="M156.4 69.3L210.8 37.9C212.6 36.9 214 37.7 214 39.8V79.2C214 81.3 212.5 83.8 210.8 84.8L156.4 116.2C154.6 117.2 153.2 116.4 153.2 114.3V74.9C153.2 72.8 154.7 70.3 156.4 69.3Z" fill="white" stroke="url(#paint4_linear)" stroke-miterlimit="10"/>
<path d="M207.4 47.8L193.9 55.6L160 75.2C159.1 75.7 158.4 77 158.4 78V78.1C158.4 79.1 159.1 79.6 160 79L188.4 62.6L207.5 51.6C208.4 51.1 209.1 49.8 209.1 48.8V48.7C209 47.7 208.3 47.2 207.4 47.8Z" fill="white" stroke="url(#paint5_linear)" stroke-miterlimit="10"/>
<path d="M159.9 93.2001L182 80.4001C182.9 79.9001 183.6 80.3001 183.6 81.3001V81.4001C183.6 82.4001 182.9 83.7001 182 84.2001L159.9 97.0001C159 97.5001 158.3 97.1001 158.3 96.1001V96.0001C158.3 95.0001 159 93.7001 159.9 93.2001Z" fill="white" stroke="url(#paint6_linear)" stroke-miterlimit="10"/>
<path d="M188.3 76.8001L207.4 65.8001C208.3 65.3001 209 65.7001 209 66.7001V66.8001C209 67.8001 208.3 69.1001 207.4 69.6001L188.3 80.6001C187.4 81.1001 186.7 80.7001 186.7 79.7001V79.6001C186.7 78.6001 187.4 77.3001 188.3 76.8001Z" fill="white" stroke="url(#paint7_linear)" stroke-miterlimit="10"/>
<path d="M207.4 56.8L201.5 60.2L200.3 60.9L193.3 64.9C193.2 64.9 193.2 65 193.1 65L187.7 68.1C187.6 68.1 187.6 68.1 187.5 68.2L181 72L160 84.1C159.1 84.6 158.4 85.9 158.4 86.9V87C158.4 88 159.1 88.5 160 87.9L177.3 77.9H177.4L180.8 75.9L200.8 64.3L207.6 60.4C208.5 59.9 209.2 58.6 209.2 57.6V57.5C209 56.7 208.3 56.3 207.4 56.8Z" fill="white" stroke="url(#paint8_linear)" stroke-miterlimit="10"/>
<path d="M159.9 102.3L179.2 91.2001C180.1 90.7001 180.8 91.1001 180.8 92.1001V92.2001C180.8 93.2001 180.1 94.5001 179.2 95.0001L159.9 106.1C159 106.6 158.3 106.2 158.3 105.2V105.1C158.3 104.1 159 102.8 159.9 102.3Z" fill="white" stroke="url(#paint9_linear)" stroke-miterlimit="10"/>
<path d="M184.6 88.1001L194.8 82.2001C195.7 81.7001 196.4 82.1001 196.4 83.1001V83.2001C196.4 84.2001 195.7 85.5001 194.8 86.0001L184.6 91.9001C183.7 92.4001 183 92.0001 183 91.0001V90.9001C182.9 89.9001 183.7 88.6001 184.6 88.1001Z" fill="white" stroke="url(#paint10_linear)" stroke-miterlimit="10"/>
<path d="M200.5 78.9001L207.4 74.9001C208.3 74.4001 209 74.8001 209 75.8001V75.9001C209 76.9001 208.3 78.2001 207.4 78.7001L200.5 82.7001C199.6 83.2001 198.9 82.8001 198.9 81.8001V81.7001C198.8 80.7001 199.6 79.4001 200.5 78.9001Z" fill="white" stroke="url(#paint11_linear)" stroke-miterlimit="10"/>
<path opacity="0.07" d="M185.4 159.8C168.5 169.7 154 176.4 153 174.8C152 173.2 165 163.8 181.9 153.9C198.8 144 213.3 137.3 214.3 138.9C215.2 140.5 202.3 149.9 185.4 159.8Z" fill="#30475E"/>
<g opacity="0.9">
<path opacity="0.6" d="M174.9 129.7L240.7 91.7C242.9 90.4 244.6 91.5 244.6 94V141.6C244.6 144.1 242.8 147.1 240.7 148.4L174.9 186.4C172.7 187.7 171 186.6 171 184.1V136.5C171 134 172.8 130.9 174.9 129.7Z" fill="#FAFAFA"/>
<path opacity="0.9" d="M174.9 129.7L240.7 91.7C242.9 90.4 244.6 91.5 244.6 94V141.6C244.6 144.1 242.8 147.1 240.7 148.4L174.9 186.4C172.7 187.7 171 186.6 171 184.1V136.5C171 134 172.8 130.9 174.9 129.7Z" stroke="url(#paint12_linear)" stroke-miterlimit="10"/>
<path opacity="0.9" d="M236.6 103.6L220.2 113.1L179.1 136.8C178 137.4 177.1 138.9 177.1 140.2V140.3C177.1 141.6 178 142.1 179.1 141.4L213.5 121.5L236.6 108.2C237.7 107.6 238.6 106.1 238.6 104.8V104.7C238.5 103.5 237.7 103 236.6 103.6Z" fill="#565656"/>
<g opacity="0.9">
<path opacity="0.9" d="M179.1 158.6L205.9 143.1C207 142.5 207.9 143 207.9 144.2V144.3C207.9 145.6 207 147.1 205.9 147.7L179.1 163.2C178 163.8 177.1 163.3 177.1 162.1V162C177.1 160.8 178 159.3 179.1 158.6Z" fill="#565656"/>
<path opacity="0.9" d="M213.5 138.8L236.6 125.5C237.7 124.9 238.6 125.4 238.6 126.6V126.7C238.6 128 237.7 129.5 236.6 130.1L213.5 143.4C212.4 144 211.5 143.5 211.5 142.3V142.2C211.5 140.9 212.4 139.4 213.5 138.8Z" fill="#565656"/>
</g>
<path opacity="0.9" d="M236.6 114.5L229.4 118.6L228 119.4L219.5 124.3C219.4 124.3 219.3 124.4 219.2 124.5L212.7 128.3C212.6 128.3 212.6 128.3 212.5 128.4L204.7 133L179.3 147.7C178.2 148.3 177.3 149.8 177.3 151.1V151.2C177.3 152.5 178.2 153 179.3 152.3L200.2 140.2H200.3L204.4 137.8L228.6 123.8L236.8 119.1C237.9 118.5 238.8 117 238.8 115.7V115.6C238.5 114.4 237.7 113.9 236.6 114.5Z" fill="#565656"/>
<g opacity="0.9">
<path opacity="0.9" d="M179.1 169.7L202.5 156.2C203.6 155.6 204.5 156.1 204.5 157.3V157.4C204.5 158.7 203.6 160.2 202.5 160.8L179.1 174.3C178 174.9 177.1 174.4 177.1 173.2V173.1C177.1 171.8 178 170.3 179.1 169.7Z" fill="#565656"/>
<path opacity="0.9" d="M209 152.5L221.3 145.4C222.4 144.8 223.3 145.3 223.3 146.5V146.6C223.3 147.9 222.4 149.4 221.3 150L209 157.1C207.9 157.7 207 157.2 207 156V155.9C207 154.6 207.9 153.1 209 152.5Z" fill="#565656"/>
<path opacity="0.9" d="M228.2 141.3L236.5 136.5C237.6 135.9 238.5 136.4 238.5 137.6V137.7C238.5 139 237.6 140.5 236.5 141.1L228.2 145.9C227.1 146.5 226.2 146 226.2 144.8V144.7C226.3 143.4 227.1 141.9 228.2 141.3Z" fill="#565656"/>
</g>
</g>
<path opacity="0.07" d="M209.6 201.8C192.7 211.7 178.2 218.4 177.2 216.8C176.2 215.2 189.2 205.8 206.1 195.9C223 186 237.5 179.3 238.5 180.9C239.4 182.5 226.5 191.9 209.6 201.8Z" fill="#30475E"/>
<g opacity="0.9">
<path opacity="0.6" d="M305 65.6L359.4 34.2C361.2 33.2 362.6 34 362.6 36.1V75.5C362.6 77.6 361.1 80.1 359.4 81.1L305 112.4C303.2 113.4 301.8 112.6 301.8 110.5V71.2C301.7 69.1 303.2 66.6 305 65.6Z" fill="#FAFAFA"/>
<path opacity="0.9" d="M305 65.6L359.4 34.2C361.2 33.2 362.6 34 362.6 36.1V75.5C362.6 77.6 361.1 80.1 359.4 81.1L305 112.4C303.2 113.4 301.8 112.6 301.8 110.5V71.2C301.7 69.1 303.2 66.6 305 65.6Z" stroke="url(#paint13_linear)" stroke-miterlimit="10"/>
<path opacity="0.9" d="M355.9 44L342.4 51.8L308.5 71.4C307.6 71.9 306.9 73.2 306.9 74.2V74.3C306.9 75.3 307.6 75.8 308.5 75.2L336.9 58.8L356 47.8C356.9 47.3 357.6 46 357.6 45C357.5 44 356.8 43.5 355.9 44Z" fill="#565656"/>
<g opacity="0.9">
<path opacity="0.9" d="M308.4 89.5L330.5 76.7C331.4 76.2 332.1 76.6 332.1 77.6V77.7C332.1 78.7 331.4 80 330.5 80.5L308.4 93.3C307.5 93.8 306.8 93.4 306.8 92.4V92.3C306.8 91.3 307.5 90 308.4 89.5Z" fill="#565656"/>
<path opacity="0.9" d="M336.8 73.1L355.9 62.1C356.8 61.6 357.5 62 357.5 63V63.1C357.5 64.1 356.8 65.4 355.9 65.9L336.8 76.9C335.9 77.4 335.2 77 335.2 76V75.9C335.2 74.9 335.9 73.6 336.8 73.1Z" fill="#565656"/>
</g>
<path opacity="0.9" d="M355.9 53.1L350 56.5L348.8 57.2L341.8 61.2C341.7 61.2 341.7 61.3 341.6 61.3L336.2 64.4C336.1 64.4 336.1 64.4 336 64.5L329.5 68.3L308.5 80.4C307.6 80.9 306.9 82.2 306.9 83.2V83.3C306.9 84.3 307.6 84.8 308.5 84.2L325.8 74.2H325.9L329.3 72.2L349.3 60.6L356.1 56.7C357 56.2 357.7 54.9 357.7 53.9V54C357.5 53 356.8 52.6 355.9 53.1Z" fill="#565656"/>
<g opacity="0.9">
<path opacity="0.9" d="M308.4 98.6L327.7 87.5C328.6 87 329.3 87.4 329.3 88.4V88.5C329.3 89.5 328.6 90.8 327.7 91.3L308.4 102.4C307.5 102.9 306.8 102.5 306.8 101.5V101.4C306.8 100.4 307.5 99.1 308.4 98.6Z" fill="#565656"/>
<path opacity="0.9" d="M333.1 84.4L343.3 78.5C344.2 78 344.9 78.4 344.9 79.4V79.5C344.9 80.5 344.2 81.8 343.3 82.3L333.1 88.2C332.2 88.7 331.5 88.3 331.5 87.3V87.2C331.5 86.2 332.2 84.9 333.1 84.4Z" fill="#565656"/>
<path opacity="0.9" d="M349 75.2L355.9 71.2C356.8 70.7 357.5 71.1 357.5 72.1V72.2C357.5 73.2 356.8 74.5 355.9 75L349 79C348.1 79.5 347.4 79.1 347.4 78.1V78C347.4 77 348.1 75.7 349 75.2Z" fill="#565656"/>
</g>
</g>
<path opacity="0.07" d="M333.9 144.7C317 154.6 302.5 161.3 301.5 159.7C300.5 158.1 313.5 148.7 330.4 138.8C347.3 128.9 361.8 122.2 362.8 123.8C363.8 125.4 350.8 134.8 333.9 144.7Z" fill="#30475E"/>
<g opacity="0.9">
<path opacity="0.6" d="M245.6 127.2L324.2 81.8001C326.8 80.3001 328.9 81.5001 328.9 84.5001V141.4C328.9 144.4 326.8 148 324.2 149.5L245.6 194.9C243 196.4 240.9 195.2 240.9 192.2V135.3C240.9 132.3 243 128.7 245.6 127.2Z" fill="#FAFAFA"/>
<path opacity="0.9" d="M245.6 127.2L324.2 81.8001C326.8 80.3001 328.9 81.5001 328.9 84.5001V141.4C328.9 144.4 326.8 148 324.2 149.5L245.6 194.9C243 196.4 240.9 195.2 240.9 192.2V135.3C240.9 132.3 243 128.7 245.6 127.2Z" stroke="url(#paint14_linear)" stroke-miterlimit="10"/>
<path opacity="0.9" d="M319.2 96.1001L299.6 107.4L250.6 135.7C249.3 136.4 248.3 138.3 248.3 139.8V139.9C248.3 141.4 249.3 142 250.6 141.3L291.6 117.6L319.1 101.7C320.4 101 321.4 99.1001 321.4 97.6001V97.5001C321.6 96.0001 320.5 95.4001 319.2 96.1001Z" fill="#565656"/>
<g opacity="0.9">
<path opacity="0.9" d="M250.6 161.8L282.6 143.3C283.9 142.6 284.9 143.2 284.9 144.7V144.8C284.9 146.3 283.8 148.1 282.6 148.9L250.6 167.4C249.3 168.1 248.3 167.5 248.3 166V165.9C248.3 164.4 249.3 162.6 250.6 161.8Z" fill="#565656"/>
<path opacity="0.9" d="M291.7 138.1L319.2 122.2C320.5 121.5 321.5 122.1 321.5 123.6V123.7C321.5 125.2 320.5 127 319.2 127.8L291.7 143.7C290.4 144.4 289.4 143.8 289.4 142.3V142.2C289.3 140.7 290.4 138.8 291.7 138.1Z" fill="#565656"/>
</g>
<path opacity="0.9" d="M319.2 109.1L310.6 114C310.6 114 310.6 114 310.5 114L308.8 115L298.6 120.9C298.5 121 298.4 121 298.3 121.1L290.5 125.6C290.4 125.6 290.4 125.7 290.3 125.7L280.9 131.1L250.5 148.7C249.2 149.4 248.2 151.3 248.2 152.8V152.9C248.2 154.4 249.2 155 250.5 154.3L275.5 139.9C275.5 139.9 275.6 139.9 275.6 139.8L280.5 137L309.4 120.3L319.2 114.7C320.5 114 321.5 112.1 321.5 110.6V110.5C321.6 109 320.5 108.4 319.2 109.1Z" fill="#565656"/>
<g opacity="0.9">
<path opacity="0.9" d="M250.6 175L278.5 158.9C279.8 158.2 280.8 158.8 280.8 160.3V160.4C280.8 161.9 279.8 163.7 278.5 164.5L250.6 180.6C249.3 181.3 248.3 180.7 248.3 179.2V179.1C248.3 177.6 249.3 175.7 250.6 175Z" fill="#565656"/>
<path opacity="0.9" d="M286.3 154.4L301 145.9C302.3 145.1 303.3 145.8 303.3 147.2V147.3C303.3 148.8 302.3 150.6 301 151.4L286.3 159.9C285 160.7 284 160 284 158.6V158.5C283.9 157 285 155.2 286.3 154.4Z" fill="#565656"/>
<path opacity="0.9" d="M309.3 141.1L319.3 135.4C320.6 134.7 321.6 135.3 321.6 136.8V136.9C321.6 138.4 320.5 140.2 319.3 141L309.3 146.7C308 147.4 307 146.8 307 145.3V145.2C306.9 143.7 308 141.9 309.3 141.1Z" fill="#565656"/>
</g>
</g>
<path opacity="0.07" d="M286.5 189.1C259.4 205 236.7 216.6 235.8 215.1C234.9 213.6 256.1 199.4 283.3 183.5C310.4 167.6 333.1 156 334 157.5C334.9 159.1 313.7 173.3 286.5 189.1Z" fill="#30475E"/>
<path opacity="0.07" d="M170.1 405.4C190 414.8 202.5 430.4 197.9 440.1C193.3 449.8 173.4 450.1 153.4 440.6C133.4 431.1 121 415.6 125.6 405.9C130.3 396.2 150.2 396 170.1 405.4Z" fill="#30475E"/>
<path d="M136.3 416.4C136.3 416.4 136.1 418.1 135.6 420.1C135.2 421.7 135.1 423.8 136.9 424.4C138.7 425 140.8 424.8 142 423.2C143.5 421.2 144.2 418.8 146.3 416.9C148.3 415.1 150.8 413 151.6 410.1C152.3 407.5 151.8 405.8 150 405.5C147.7 405.2 144.1 407.1 142.3 408.4C141 409.4 136.3 416.4 136.3 416.4Z" fill="url(#paint15_linear)"/>
<path d="M159.9 423.1C159.9 423.1 159.8 425.3 159.7 427C159.6 428.8 159 431.7 159.5 432.7C160 433.8 163.6 434.3 166.8 433.1C168.8 432.3 173.8 430.8 175.2 431.5C177.2 432.6 180 432.7 182.7 430.8C185.4 428.9 188.4 426.5 188.9 425C189.4 423.5 187.9 423.4 181.3 422.7C174.7 422 169.8 421.7 167.2 419L159.9 423.1Z" fill="url(#paint16_linear)"/>
<path d="M269.3 268.8C269.5 269.1 269.6 269.4 269.7 269.6C269.8 269.8 269.9 270.1 270 270.3C270.1 270.5 270.2 270.7 270.3 270.9C270.4 271.1 270.5 271.4 270.6 271.6C270.7 271.8 270.7 272.1 270.8 272.3C270.9 272.6 270.9 272.8 271 273.1C271.1 273.3 271.1 273.6 271.2 273.8C271.3 274.1 271.3 274.3 271.4 274.6C271.4 274.8 271.5 275.1 271.5 275.3C271.5 275.6 271.6 275.9 271.6 276.2C271.6 276.4 271.6 276.7 271.7 276.9C271.7 277.2 271.7 277.5 271.7 277.8C271.7 278 271.7 278.3 271.7 278.5C271.7 278.9 271.7 279.2 271.7 279.6C271.7 279.8 271.7 280 271.7 280.3C271.7 280.7 271.6 281.1 271.5 281.6C271.5 281.8 271.5 282 271.4 282.2C271.4 282.3 271.4 282.4 271.4 282.5C271.3 282.9 271.2 283.4 271.1 283.8C271.1 283.9 271 284 271 284.2C270.9 284.7 270.7 285.2 270.6 285.7C270.6 285.8 270.5 285.9 270.5 286C270.4 286.4 270.3 286.8 270.1 287.2C270 287.5 269.9 287.8 269.8 288.2C269.7 288.5 269.6 288.8 269.5 289.1C269.4 289.4 269.2 289.7 269.1 290.1C269 290.4 268.8 290.7 268.7 291C268.6 291.3 268.4 291.7 268.2 292C268.1 292.3 267.9 292.6 267.7 292.9C267.5 293.2 267.3 293.6 267.2 293.9C267 294.3 266.7 294.7 266.5 295.2C266 296 265.5 296.8 265 297.5C264.9 297.7 264.7 297.9 264.5 298.2C264.1 298.8 263.7 299.4 263.2 300C263.1 300.2 262.9 300.4 262.8 300.6C262.2 301.3 261.6 302.1 261 302.8C260.9 302.9 260.8 303.1 260.7 303.2C260.2 303.8 259.6 304.4 259.1 305C258.9 305.2 258.6 305.5 258.4 305.7C258.1 306 257.8 306.3 257.5 306.7C257.2 307 257 307.2 256.7 307.5C256.4 307.8 256.1 308.1 255.7 308.4C255.4 308.7 255.1 308.9 254.9 309.2C254.6 309.5 254.2 309.8 253.9 310.1C253.6 310.4 253.3 310.6 253 310.9C252.6 311.2 252.3 311.5 251.9 311.8C251.6 312 251.3 312.3 251.1 312.5C250.3 313.1 249.5 313.8 248.7 314.4C248.6 314.5 248.5 314.6 248.4 314.7C247.7 315.2 247 315.7 246.3 316.3C246 316.5 245.7 316.7 245.5 316.9C245 317.2 244.6 317.5 244.1 317.9C243.8 318.1 243.5 318.3 243.2 318.5C242.7 318.8 242.2 319.1 241.7 319.4C241.4 319.6 241.1 319.8 240.9 319.9C240.5 320.2 240 320.4 239.6 320.7C239.3 320.9 239 321.1 238.7 321.2C238.2 321.5 237.7 321.7 237.3 322C237 322.2 236.7 322.3 236.4 322.5C236 322.7 235.5 323 235 323.2C234.7 323.4 234.4 323.5 234.1 323.7C233.6 323.9 233.1 324.2 232.6 324.4C232.3 324.5 232 324.7 231.8 324.8C231.2 325.1 230.6 325.3 230 325.6C229.8 325.7 229.6 325.8 229.4 325.9C228.6 326.2 227.8 326.5 227 326.9C226.9 326.9 226.8 327 226.6 327C225.9 327.3 225.2 327.5 224.5 327.8C224.2 327.9 223.9 328 223.7 328.1C223.2 328.3 222.6 328.5 222.1 328.6C221.8 328.7 221.5 328.8 221.3 328.9C220.7 329.1 220.1 329.3 219.6 329.4C219.3 329.5 218.9 329.6 218.6 329.7C218.1 329.8 217.5 330 217 330.1C216.7 330.2 216.4 330.2 216.1 330.3C215.2 330.5 214.4 330.7 213.5 330.8C213.3 330.8 213.2 330.9 213 330.9C212 331.1 211 331.2 210.1 331.4C209.7 331.5 209.3 331.5 208.9 331.6C208.6 331.6 208.3 331.7 208 331.7C207.6 331.7 207.1 331.8 206.7 331.8C206.4 331.8 206.1 331.9 205.8 331.9C205.3 331.9 204.8 332 204.3 332C204.1 332 203.8 332 203.6 332C202.9 332 202.1 332 201.4 332C189.4 331.9 181 327.5 177.2 320.6L184.4 333.5C188.2 340.4 196.6 344.7 208.6 344.9C209.3 344.9 210 344.9 210.8 344.9C211 344.9 211.3 344.9 211.5 344.9C212 344.9 212.5 344.9 213 344.8C213.3 344.8 213.6 344.8 213.9 344.7C214.3 344.7 214.8 344.6 215.2 344.6C215.5 344.6 215.8 344.5 216.1 344.5C216.4 344.5 216.7 344.4 217 344.4C217.1 344.4 217.2 344.4 217.3 344.4C218.3 344.3 219.3 344.1 220.2 343.9C220.4 343.9 220.5 343.8 220.7 343.8C221.6 343.6 222.4 343.5 223.3 343.3C223.4 343.3 223.6 343.2 223.7 343.2C223.9 343.2 224 343.1 224.2 343.1C224.7 343 225.3 342.8 225.8 342.7C226.1 342.6 226.4 342.5 226.8 342.4C227.4 342.2 228 342.1 228.5 341.9C228.7 341.8 228.9 341.8 229.2 341.7C229.3 341.7 229.3 341.7 229.4 341.6C229.9 341.4 230.5 341.3 231 341.1C231.3 341 231.6 340.9 231.8 340.8C232.5 340.6 233.2 340.3 233.9 340C234 340 234.1 339.9 234.2 339.9C235 339.6 235.8 339.3 236.6 338.9C236.8 338.8 237 338.7 237.1 338.7C237.7 338.4 238.3 338.2 238.9 337.9C239.2 337.8 239.4 337.6 239.7 337.5C240.2 337.3 240.7 337 241.2 336.8C241.5 336.6 241.8 336.5 242.1 336.3C242.5 336.1 243 335.8 243.4 335.6C243.4 335.6 243.5 335.6 243.5 335.5C243.8 335.4 244 335.2 244.2 335.1C244.7 334.8 245.2 334.6 245.6 334.3C245.9 334.1 246.2 333.9 246.5 333.8C246.9 333.5 247.4 333.3 247.8 333C247.9 333 248 332.9 248 332.9C248.2 332.8 248.4 332.6 248.6 332.5C249.1 332.2 249.6 331.9 250.1 331.6C250.4 331.4 250.7 331.2 251 331C251.5 330.7 251.9 330.4 252.4 330C252.6 329.9 252.7 329.8 252.9 329.7C253 329.6 253.1 329.5 253.2 329.5C253.9 329 254.6 328.5 255.3 327.9C255.4 327.8 255.5 327.7 255.6 327.6C256.4 327 257.2 326.4 258 325.7C258.1 325.6 258.1 325.6 258.2 325.5C258.4 325.3 258.6 325.2 258.8 325C259.2 324.7 259.5 324.4 259.9 324.1C260.2 323.8 260.5 323.6 260.8 323.3C261.1 323 261.5 322.7 261.8 322.4C262.1 322.1 262.4 321.9 262.6 321.6C262.9 321.3 263.3 321 263.6 320.6C263.9 320.3 264.1 320.1 264.4 319.8C264.7 319.5 265 319.2 265.3 318.8C265.4 318.7 265.6 318.5 265.7 318.4C265.8 318.3 265.9 318.2 266 318.1C266.5 317.5 267.1 316.9 267.6 316.3C267.7 316.2 267.8 316 267.9 315.9C268.5 315.2 269.1 314.4 269.7 313.7C269.8 313.5 270 313.3 270.1 313.1C270.5 312.5 271 311.9 271.4 311.3C271.6 311.1 271.7 310.9 271.9 310.6C272.4 309.8 272.9 309 273.4 308.3C273.5 308.1 273.7 307.9 273.8 307.7C273.9 307.5 274 307.3 274.1 307.1C274.3 306.8 274.5 306.4 274.6 306.1C274.8 305.8 274.9 305.5 275.1 305.2C275.3 304.9 275.4 304.5 275.6 304.2C275.7 303.9 275.9 303.6 276 303.3C276.1 303 276.3 302.7 276.4 302.3C276.5 302 276.6 301.7 276.7 301.4C276.8 301.1 276.9 300.8 277 300.4C277 300.3 277.1 300.1 277.1 300C277.2 299.7 277.3 299.5 277.3 299.2C277.3 299.1 277.4 299 277.4 298.9C277.5 298.4 277.7 297.9 277.8 297.4C277.8 297.3 277.9 297.2 277.9 297C278 296.6 278.1 296.1 278.2 295.7C278.2 295.6 278.2 295.5 278.2 295.4V295.3C278.2 295.1 278.2 295 278.3 294.8C278.4 294.4 278.4 294 278.5 293.5C278.5 293.3 278.5 293.1 278.5 292.8C278.5 292.4 278.5 292.1 278.5 291.7C278.5 291.6 278.5 291.5 278.5 291.4C278.5 291.3 278.5 291.1 278.5 291C278.5 290.7 278.5 290.4 278.5 290.1C278.5 289.9 278.5 289.6 278.4 289.4C278.4 289.1 278.3 288.8 278.3 288.5C278.3 288.4 278.3 288.2 278.3 288.1C278.3 288 278.3 287.9 278.2 287.8C278.2 287.5 278.1 287.3 278 287C277.9 286.8 277.9 286.5 277.8 286.3C277.7 286 277.7 285.8 277.6 285.5C277.6 285.4 277.5 285.2 277.5 285.1C277.5 285 277.4 284.9 277.4 284.8C277.3 284.5 277.2 284.3 277.1 284C277 283.8 276.9 283.6 276.8 283.4C276.7 283.2 276.6 282.9 276.5 282.7C276.4 282.6 276.4 282.4 276.3 282.3C276.2 282.2 276.2 282 276.1 281.9L269.3 268.8Z" fill="url(#paint17_linear)"/>
<path d="M238.07 321.233C263.541 307.041 277.523 283.568 269.297 268.806C261.072 254.044 233.755 253.582 208.284 267.775C182.812 281.967 168.831 305.44 177.056 320.202C185.281 334.964 212.598 335.425 238.07 321.233Z" fill="#7F9BCC"/>
<path d="M178.2 242.5L181.3 246.5L162.5 261L158.2 251.9L178.2 242.5Z" fill="#FFAB91"/>
<path d="M194.1 231.4C194.3 231.3 194.5 231 194.5 230.8L194.7 229.7L185.9 233.9L178.1 242.5L181 246.6L186.8 243.8L190.3 239.4L194.7 239.5C195 239.5 195.2 239.4 195.4 239.2L196 238.5L190.3 238.1L190.2 237.8L195.4 237.3C195.7 237.3 195.9 237.1 196.1 236.9L196.7 236L189.6 236.2L189.5 235.9L196.1 233.6C196.4 233.5 196.6 233.3 196.7 233L197 232L188.9 234.3V234.2L194.1 231.4Z" fill="#FFAB91"/>
<path d="M184.9 236.7L190.7 232.4V233.9L188.5 236.1L186.1 240.8L182.8 242.5" fill="#FFAB91"/>
<path d="M225.6 299.1C216.9 304.7 205.4 302.3 199.7 293.6L159.9 232.4C154.3 223.7 156.7 212.2 165.4 206.5C174.1 200.9 185.6 203.3 191.3 212L231.1 273.2C236.7 281.9 234.2 293.4 225.6 299.1Z" fill="url(#paint18_linear)"/>
<path d="M146.4 218.8L147.7 206.2L138.1 206.5L137.3 211C139.3 215.2 142.7 219 146.4 218.8Z" fill="#FFAB91"/>
<path d="M137.3 211L135.6 221.4L141.6 225.2C142 225.8 142.6 226.1 143.2 225.9C143.7 225.8 144.2 225.4 144.5 224.9L145.6 223.1C145.9 222.7 146 222.2 146.1 221.7L146.3 218.8C142.7 219 139.3 215.2 137.3 211Z" fill="#FFCCBC"/>
<path d="M158.9 193.5L150.5 192.4L149.2 197.9L147.7 200L147 205.6L145.4 204.8C145.2 204.1 145.3 201.1 144.6 200.8C140.8 199.3 142 205 142.2 206.1C142.4 207.2 143.6 207.9 144.6 207.4L144.4 209C143.6 215.3 146.7 220.5 153 220.2C154.7 220 158.9 193.5 158.9 193.5Z" fill="#FFCCBC"/>
<path d="M143.6 294.5L145.9 310.1L149.7 324.3L151.1 358.3L143.7 411.6C143.5 414.2 141.6 416.4 139.1 416.8L137.6 417.1C136.8 417.2 136.1 416.7 136 415.9L133.3 386.5C132.4 377.1 134.5 367.6 139.3 359.4L140.9 356.6L125 322C123.6 317.8 122.9 313.4 123 309L123.2 296.4L143.6 294.5Z" fill="url(#paint19_linear)"/>
<path d="M167.8 301L168.2 302.7C170.6 311.8 170.9 365.6 170.9 365.6L168.3 419.7C168.2 422.2 166 424.2 163.5 424.1L161.5 424C160.4 424 159.5 423.1 159.4 422L155.9 392C155 384.2 156.1 376.2 159.2 369L161 364.7L143.4 330.9C141 324.4 139.4 317.6 138.7 310.7L138 303.5L167.8 301Z" fill="url(#paint20_linear)"/>
<path d="M138 220.2C129.8 219.4 120.6 226.7 123 234.4C139.7 286.4 127.9 274.9 121.1 303.2C139.2 318.9 171.4 307.7 169.3 301.8C151.2 249.7 171.1 264 164.9 245.1C164.3 243.3 155.6 222 138 220.2Z" fill="url(#paint21_linear)"/>
<path d="M159.4 184.9C161.9 188.7 162.5 193.7 160.9 197.9C159.3 202.2 155.7 205.6 151.3 206.9C148 213.6 144.7 220.7 143.4 228.1C142.8 231.7 142.4 235.3 141.2 238.8C140 242.3 138 245.6 134.9 247.4C130.1 250.2 123.6 248.9 119.5 245.1C115.5 241.3 113.7 235.5 113.9 229.9C114.1 224.3 115.9 219 118.2 213.9C120.5 208.8 123.2 203.9 125.1 198.7C126.6 194.6 127.7 190.3 130.1 186.7C133.2 182 138.5 178.8 144.1 178.3C149.8 177.8 156.3 180.2 159.4 184.9Z" fill="#FFAB00"/>
<path d="M192.9 266.5L167.1 267.5C165.3 267.7 165.4 266.8 164.7 265.1L153.3 235.5C149.3 236.7 145.6 238.2 142.4 241.2L158.3 277C159 278.8 160.8 279.8 162.7 279.5L194 271.5L192.9 266.5Z" fill="#FFCCBC"/>
<path d="M211.7 262.5C212 262.5 212.2 262.3 212.4 262.1L213.1 261.1L203 261.6L192.1 266.7L193.2 271.8L199.9 271.5L205 268.7L209.2 270.5C209.5 270.6 209.7 270.6 210 270.5L210.9 270L205.6 267.3V266.9L210.8 268.5C211.1 268.6 211.4 268.5 211.6 268.4L212.5 267.8L205.7 265.1V264.8L213 265.3C213.3 265.3 213.6 265.2 213.8 265L214.5 264.2L205.8 263.1V263L211.7 262.5Z" fill="#FFCCBC"/>
<defs>
<linearGradient id="paint0_linear" x1="605.137" y1="158.061" x2="603.266" y2="232.529" gradientUnits="userSpaceOnUse">
<stop stop-color="#E1473D"/>
<stop offset="1" stop-color="#E9605A"/>
</linearGradient>
<linearGradient id="paint1_linear" x1="620.549" y1="170.47" x2="627.846" y2="328.389" gradientUnits="userSpaceOnUse">
<stop stop-color="#E1473D"/>
<stop offset="1" stop-color="#E9605A"/>
</linearGradient>
<linearGradient id="paint2_linear" x1="629.37" y1="171.609" x2="649.33" y2="171.609" gradientUnits="userSpaceOnUse">
<stop stop-color="#E1473D"/>
<stop offset="1" stop-color="#E9605A"/>
</linearGradient>
<linearGradient id="paint3_linear" x1="152.701" y1="77.003" x2="214.557" y2="77.003" gradientUnits="userSpaceOnUse">
<stop stop-color="#4F52FF"/>
<stop offset="1" stop-color="#4042E2"/>
</linearGradient>
<linearGradient id="paint4_linear" x1="152.701" y1="77.003" x2="214.557" y2="77.003" gradientUnits="userSpaceOnUse">
<stop stop-color="#4F52FF"/>
<stop offset="1" stop-color="#4042E2"/>
</linearGradient>
<linearGradient id="paint5_linear" x1="157.771" y1="63.3719" x2="209.486" y2="63.3719" gradientUnits="userSpaceOnUse">
<stop stop-color="#4F52FF"/>
<stop offset="1" stop-color="#4042E2"/>
</linearGradient>
<linearGradient id="paint6_linear" x1="157.771" y1="88.7394" x2="184.128" y2="88.7394" gradientUnits="userSpaceOnUse">
<stop stop-color="#4F52FF"/>
<stop offset="1" stop-color="#4042E2"/>
</linearGradient>
<linearGradient id="paint7_linear" x1="186.186" y1="73.2183" x2="209.486" y2="73.2183" gradientUnits="userSpaceOnUse">
<stop stop-color="#4F52FF"/>
<stop offset="1" stop-color="#4042E2"/>
</linearGradient>
<linearGradient id="paint8_linear" x1="157.771" y1="72.3951" x2="209.486" y2="72.3951" gradientUnits="userSpaceOnUse">
<stop stop-color="#4F52FF"/>
<stop offset="1" stop-color="#4042E2"/>
</linearGradient>
<linearGradient id="paint9_linear" x1="157.771" y1="98.69" x2="181.303" y2="98.69" gradientUnits="userSpaceOnUse">
<stop stop-color="#4F52FF"/>
<stop offset="1" stop-color="#4042E2"/>
</linearGradient>
<linearGradient id="paint10_linear" x1="182.436" y1="87.0822" x2="196.83" y2="87.0822" gradientUnits="userSpaceOnUse">
<stop stop-color="#4F52FF"/>
<stop offset="1" stop-color="#4042E2"/>
</linearGradient>
<linearGradient id="paint11_linear" x1="198.343" y1="78.819" x2="209.486" y2="78.819" gradientUnits="userSpaceOnUse">
<stop stop-color="#4F52FF"/>
<stop offset="1" stop-color="#4042E2"/>
</linearGradient>
<linearGradient id="paint12_linear" x1="170.505" y1="139.017" x2="245.183" y2="139.017" gradientUnits="userSpaceOnUse">
<stop stop-color="#4F52FF"/>
<stop offset="1" stop-color="#4042E2"/>
</linearGradient>
<linearGradient id="paint13_linear" x1="301.229" y1="73.3021" x2="363.085" y2="73.3021" gradientUnits="userSpaceOnUse">
<stop stop-color="#4F52FF"/>
<stop offset="1" stop-color="#4042E2"/>
</linearGradient>
<linearGradient id="paint14_linear" x1="240.43" y1="138.39" x2="329.395" y2="138.39" gradientUnits="userSpaceOnUse">
<stop stop-color="#4F52FF"/>
<stop offset="1" stop-color="#4042E2"/>
</linearGradient>
<linearGradient id="paint15_linear" x1="135.41" y1="415.109" x2="151.942" y2="415.109" gradientUnits="userSpaceOnUse">
<stop stop-color="#4F52FF"/>
<stop offset="1" stop-color="#4042E2"/>
</linearGradient>
<linearGradient id="paint16_linear" x1="159.223" y1="426.486" x2="188.835" y2="426.486" gradientUnits="userSpaceOnUse">
<stop stop-color="#4F52FF"/>
<stop offset="1" stop-color="#4042E2"/>
</linearGradient>
<linearGradient id="paint17_linear" x1="177.11" y1="306.635" x2="278.852" y2="306.635" gradientUnits="userSpaceOnUse">
<stop stop-color="#4F52FF"/>
<stop offset="1" stop-color="#4042E2"/>
</linearGradient>
<linearGradient id="paint18_linear" x1="228.385" y1="289.893" x2="177.185" y2="232.152" gradientUnits="userSpaceOnUse">
<stop stop-color="#4F52FF"/>
<stop offset="1" stop-color="#4068FF"/>
</linearGradient>
<linearGradient id="paint19_linear" x1="122.986" y1="355.814" x2="151.082" y2="355.814" gradientUnits="userSpaceOnUse">
<stop stop-color="#E1473D"/>
<stop offset="1" stop-color="#E9605A"/>
</linearGradient>
<linearGradient id="paint20_linear" x1="137.955" y1="362.48" x2="170.961" y2="362.48" gradientUnits="userSpaceOnUse">
<stop stop-color="#E1473D"/>
<stop offset="1" stop-color="#E9605A"/>
</linearGradient>
<linearGradient id="paint21_linear" x1="144.563" y1="251.719" x2="146.299" y2="378.82" gradientUnits="userSpaceOnUse">
<stop stop-color="#4F52FF"/>
<stop offset="1" stop-color="#4042E2"/>
</linearGradient>
</defs>
</svg>
