<svg width="158" height="67" viewBox="0 0 158 67" fill="none" xmlns="http://www.w3.org/2000/svg">
<path d="M7.65275 49.48V49.304L8.63175 48.842V42.858L7.65275 42.396V42.22H11.7008V42.396L10.7218 42.858V48.842L11.7008 49.304V49.48H7.65275ZM12.3578 49.48V49.293L13.1938 48.93V43.859L12.3578 43.496V43.32H14.6458L18.2648 47.104V43.859L17.1098 43.496V43.32H19.7938V43.496L18.9798 43.859V49.524H17.9788L13.9088 45.311V48.93L15.0638 49.293V49.48H12.3578ZM21.6124 49.48V49.304L22.6464 48.941V43.892H21.5024L20.6334 45.564H20.4574V43.32H26.8704V45.564H26.7054L25.8254 43.892H24.6814V48.941L25.7154 49.304V49.48H21.6124ZM27.5258 49.48V49.304L28.3618 48.941V43.859L27.5258 43.496V43.32H33.2348V45.036H33.0588L32.2228 43.892H30.3968V46.048H31.6618L32.2888 45.223H32.4538V47.357H32.2888L31.6618 46.543H30.3968V48.908H32.4208L33.3228 47.346H33.4988V49.48H27.5258ZM34.2719 49.48V49.304L35.1079 48.941V43.859L34.2719 43.496V43.32H38.2429C38.8956 43.32 39.4126 43.4483 39.7939 43.705C40.1752 43.9616 40.3659 44.3173 40.3659 44.772C40.3659 45.0946 40.2706 45.3733 40.0799 45.608C39.8892 45.8353 39.5849 46.0223 39.1669 46.169L40.8389 48.93L41.5539 49.304V49.48H38.8149L37.3519 46.675H37.1429V48.93L37.8469 49.304V49.48H34.2719ZM37.2969 43.804H37.1429V46.18H37.3079C37.6966 46.18 37.9679 46.0663 38.1219 45.839C38.2759 45.6116 38.3529 45.3183 38.3529 44.959C38.3529 44.585 38.2722 44.299 38.1109 44.101C37.9496 43.903 37.6782 43.804 37.2969 43.804ZM45.8179 49.59C45.2313 49.59 44.6923 49.4983 44.2009 49.315C43.7169 49.1316 43.2953 48.875 42.9359 48.545C42.5839 48.215 42.3089 47.8336 42.1109 47.401C41.9203 46.961 41.8249 46.4843 41.8249 45.971C41.8249 45.4063 41.9423 44.8893 42.1769 44.42C42.4116 43.9506 42.7269 43.5436 43.1229 43.199C43.5189 42.8543 43.9663 42.5866 44.4649 42.396C44.9636 42.2053 45.4769 42.11 46.0049 42.11C46.4009 42.11 46.7273 42.132 46.9839 42.176C47.2479 42.22 47.4789 42.2823 47.6769 42.363C47.8823 42.4436 48.0913 42.5353 48.3039 42.638L48.4689 44.772H48.2709L46.9729 42.836C46.8483 42.7773 46.7199 42.7333 46.5879 42.704C46.4559 42.6746 46.2946 42.66 46.1039 42.66C45.7079 42.66 45.3523 42.7956 45.0369 43.067C44.7216 43.3383 44.4723 43.7233 44.2889 44.222C44.1056 44.7206 44.0139 45.3146 44.0139 46.004C44.0139 46.6126 44.1019 47.1406 44.2779 47.588C44.4539 48.0353 44.6959 48.38 45.0039 48.622C45.3119 48.864 45.6639 48.985 46.0599 48.985C46.2433 48.985 46.4229 48.9666 46.5989 48.93C46.7749 48.8933 46.9509 48.8273 47.1269 48.732L48.3479 47.071H48.5459L48.3589 48.996C48.0803 49.1866 47.7063 49.3333 47.2369 49.436C46.7749 49.5386 46.3019 49.59 45.8179 49.59ZM52.9698 49.59C52.3025 49.59 51.7085 49.4506 51.1878 49.172C50.6745 48.8933 50.2712 48.512 49.9778 48.028C49.6845 47.544 49.5378 46.9976 49.5378 46.389C49.5378 45.7803 49.6845 45.234 49.9778 44.75C50.2712 44.266 50.6745 43.8846 51.1878 43.606C51.7085 43.3273 52.3025 43.188 52.9698 43.188C53.6372 43.188 54.2275 43.3273 54.7408 43.606C55.2615 43.8846 55.6685 44.266 55.9618 44.75C56.2552 45.234 56.4018 45.7803 56.4018 46.389C56.4018 46.9976 56.2552 47.544 55.9618 48.028C55.6685 48.512 55.2615 48.8933 54.7408 49.172C54.2275 49.4506 53.6372 49.59 52.9698 49.59ZM53.1018 49.007C53.3438 49.007 53.5528 48.9043 53.7288 48.699C53.9048 48.4936 54.0405 48.215 54.1358 47.863C54.2312 47.511 54.2788 47.1113 54.2788 46.664C54.2788 46.1066 54.2165 45.6116 54.0918 45.179C53.9745 44.739 53.8095 44.3943 53.5968 44.145C53.3842 43.8883 53.1422 43.76 52.8708 43.76C52.6362 43.76 52.4272 43.8626 52.2438 44.068C52.0605 44.2733 51.9175 44.552 51.8148 44.904C51.7195 45.256 51.6718 45.6556 51.6718 46.103C51.6718 46.653 51.7342 47.148 51.8588 47.588C51.9835 48.028 52.1522 48.3763 52.3648 48.633C52.5848 48.8823 52.8305 49.007 53.1018 49.007ZM57.1205 49.48V49.304L57.9565 48.93L58.1435 43.848L57.3185 43.496V43.32H60.3215L61.8835 46.928L63.3905 43.32H66.3165V43.496L65.4915 43.749L65.6455 48.93L66.3935 49.304V49.48H62.8185V49.304L63.5995 48.941L63.5115 44.651L61.4545 49.524H60.8495L58.7375 44.64L58.6275 48.941L59.4745 49.304V49.48H57.1205ZM67.0571 49.48V49.304L67.8931 48.941V43.859L67.0571 43.496V43.32H70.9731C71.7064 43.32 72.2967 43.452 72.7441 43.716C73.1914 43.9726 73.4151 44.387 73.4151 44.959C73.4151 45.3183 73.2977 45.63 73.0631 45.894C72.8284 46.158 72.5094 46.367 72.1061 46.521C71.7027 46.6676 71.2481 46.741 70.7421 46.741H69.9281V48.941L70.9621 49.304V49.48H67.0571ZM69.9281 43.892V46.246H70.0491C70.5037 46.246 70.8374 46.1396 71.0501 45.927C71.2627 45.707 71.3691 45.4173 71.3691 45.058C71.3691 44.6473 71.2554 44.3503 71.0281 44.167C70.8081 43.9836 70.4597 43.892 69.9831 43.892H69.9281ZM72.9708 49.48V49.304L73.5428 48.974L75.9958 43.265H77.2278L79.6258 48.864L80.3298 49.304V49.48H76.8098V49.304L77.6018 48.963L77.0188 47.555H74.8408L74.2578 48.952L75.0168 49.304V49.48H72.9708ZM75.0828 46.983H76.7768L75.9298 44.97L75.0828 46.983ZM80.7748 49.48V49.293L81.6108 48.93V43.859L80.7748 43.496V43.32H83.0628L86.6818 47.104V43.859L85.5268 43.496V43.32H88.2108V43.496L87.3968 43.859V49.524H86.3958L82.3258 45.311V48.93L83.4808 49.293V49.48H80.7748ZM90.5134 49.48V49.304L91.3494 48.941V46.609L89.3694 43.914L88.6544 43.496V43.32H92.2184V43.496L91.5034 43.837V43.87L93.0984 46.015L94.5284 43.892V43.848L93.7804 43.496V43.32H96.0024V43.496L95.3314 43.815L93.3844 46.598V48.941L94.2204 49.304V49.48H90.5134ZM96.4477 49.48V49.304L97.4267 48.842V42.858L96.4477 42.396V42.22H102.85V44.134H102.674L101.772 42.825H99.5167V45.432H101.101L101.761 44.464H101.937V46.983H101.761L101.101 46.037H99.5167V48.875H102.003L102.982 47.071H103.158V49.48H96.4477ZM103.93 49.48V49.304L104.502 48.974L106.955 43.265H108.187L110.585 48.864L111.289 49.304V49.48H107.769V49.304L108.561 48.963L107.978 47.555H105.8L105.217 48.952L105.976 49.304V49.48H103.93ZM106.042 46.983H107.736L106.889 44.97L106.042 46.983ZM111.734 49.48V49.304L112.57 48.941V43.859L111.734 43.496V43.32H115.705C116.357 43.32 116.874 43.4483 117.256 43.705C117.637 43.9616 117.828 44.3173 117.828 44.772C117.828 45.0946 117.732 45.3733 117.542 45.608C117.351 45.8353 117.047 46.0223 116.629 46.169L118.301 48.93L119.016 49.304V49.48H116.277L114.814 46.675H114.605V48.93L115.309 49.304V49.48H111.734ZM114.759 43.804H114.605V46.18H114.77C115.158 46.18 115.43 46.0663 115.584 45.839C115.738 45.6116 115.815 45.3183 115.815 44.959C115.815 44.585 115.734 44.299 115.573 44.101C115.411 43.903 115.14 43.804 114.759 43.804ZM121.982 49.48V49.304L122.961 48.842V42.858L121.982 42.396V42.22H126.14V42.396L125.051 42.858V48.875H127.306L128.296 46.631H128.472V49.48H121.982ZM129.952 49.48V49.304L131.162 48.842V42.825H129.732L128.764 44.761H128.588V42.22H135.826V44.761H135.65L134.682 42.825H133.252V48.842L134.462 49.304V49.48H129.952ZM136.484 49.48V49.304L137.463 48.842V42.858L136.484 42.396V42.22H140.576C141.485 42.22 142.255 42.363 142.886 42.649C143.524 42.935 144.008 43.3273 144.338 43.826C144.675 44.3246 144.844 44.8893 144.844 45.52C144.844 46.092 144.737 46.62 144.525 47.104C144.312 47.588 144.008 48.006 143.612 48.358C143.223 48.71 142.765 48.985 142.237 49.183C141.709 49.381 141.129 49.48 140.499 49.48H136.484ZM139.993 42.825H139.553V48.875H140.158C140.979 48.875 141.606 48.6036 142.039 48.061C142.471 47.511 142.688 46.7776 142.688 45.861C142.688 44.9296 142.464 44.1926 142.017 43.65C141.577 43.1 140.902 42.825 139.993 42.825ZM0.976484 66.48V66.304L1.71348 65.941V60.859L0.976484 60.496V60.32H4.56248V60.496L3.74848 60.859V65.941L4.56248 66.304V66.48H0.976484ZM5.21965 66.48V66.304L6.05565 65.93L6.24265 60.848L5.41765 60.496V60.32H8.42065L9.98265 63.928L11.4896 60.32H14.4156V60.496L13.5906 60.749L13.7446 65.93L14.4926 66.304V66.48H10.9176V66.304L11.6986 65.941L11.6106 61.651L9.55365 66.524H8.94865L6.83665 61.64L6.72665 65.941L7.57365 66.304V66.48H5.21965ZM15.1562 66.48V66.304L15.9922 65.941V60.859L15.1562 60.496V60.32H19.0722C19.8055 60.32 20.3958 60.452 20.8432 60.716C21.2905 60.9726 21.5142 61.387 21.5142 61.959C21.5142 62.3183 21.3968 62.63 21.1622 62.894C20.9275 63.158 20.6085 63.367 20.2052 63.521C19.8018 63.6676 19.3472 63.741 18.8412 63.741H18.0272V65.941L19.0612 66.304V66.48H15.1562ZM18.0272 60.892V63.246H18.1482C18.6028 63.246 18.9365 63.1396 19.1492 62.927C19.3618 62.707 19.4682 62.4173 19.4682 62.058C19.4682 61.6473 19.3545 61.3503 19.1272 61.167C18.9072 60.9836 18.5588 60.892 18.0822 60.892H18.0272ZM25.5504 66.59C24.8831 66.59 24.2891 66.4506 23.7684 66.172C23.2551 65.8933 22.8517 65.512 22.5584 65.028C22.2651 64.544 22.1184 63.9976 22.1184 63.389C22.1184 62.7803 22.2651 62.234 22.5584 61.75C22.8517 61.266 23.2551 60.8846 23.7684 60.606C24.2891 60.3273 24.8831 60.188 25.5504 60.188C26.2177 60.188 26.8081 60.3273 27.3214 60.606C27.8421 60.8846 28.2491 61.266 28.5424 61.75C28.8357 62.234 28.9824 62.7803 28.9824 63.389C28.9824 63.9976 28.8357 64.544 28.5424 65.028C28.2491 65.512 27.8421 65.8933 27.3214 66.172C26.8081 66.4506 26.2177 66.59 25.5504 66.59ZM25.6824 66.007C25.9244 66.007 26.1334 65.9043 26.3094 65.699C26.4854 65.4936 26.6211 65.215 26.7164 64.863C26.8117 64.511 26.8594 64.1113 26.8594 63.664C26.8594 63.1066 26.7971 62.6116 26.6724 62.179C26.5551 61.739 26.3901 61.3943 26.1774 61.145C25.9647 60.8883 25.7227 60.76 25.4514 60.76C25.2167 60.76 25.0077 60.8626 24.8244 61.068C24.6411 61.2733 24.4981 61.552 24.3954 61.904C24.3001 62.256 24.2524 62.6556 24.2524 63.103C24.2524 63.653 24.3147 64.148 24.4394 64.588C24.5641 65.028 24.7327 65.3763 24.9454 65.633C25.1654 65.8823 25.4111 66.007 25.6824 66.007ZM29.7011 66.48V66.304L30.5371 65.941V60.859L29.7011 60.496V60.32H33.6721C34.3248 60.32 34.8418 60.4483 35.2231 60.705C35.6044 60.9616 35.7951 61.3173 35.7951 61.772C35.7951 62.0946 35.6998 62.3733 35.5091 62.608C35.3184 62.8353 35.0141 63.0223 34.5961 63.169L36.2681 65.93L36.9831 66.304V66.48H34.2441L32.7811 63.675H32.5721V65.93L33.2761 66.304V66.48H29.7011ZM32.7261 60.804H32.5721V63.18H32.7371C33.1258 63.18 33.3971 63.0663 33.5511 62.839C33.7051 62.6116 33.7821 62.3183 33.7821 61.959C33.7821 61.585 33.7014 61.299 33.5401 61.101C33.3788 60.903 33.1074 60.804 32.7261 60.804ZM38.2467 66.48V66.304L39.2807 65.941V60.892H38.1367L37.2677 62.564H37.0917V60.32H43.5047V62.564H43.3397L42.4597 60.892H41.3157V65.941L42.3497 66.304V66.48H38.2467ZM49.0221 66.59C48.3474 66.59 47.8047 66.458 47.3941 66.194C46.9907 65.93 46.7891 65.5523 46.7891 65.061C46.7891 64.709 46.9137 64.3863 47.1631 64.093C47.4197 63.7996 47.7644 63.5723 48.1971 63.411C47.9624 63.1763 47.7644 62.938 47.6031 62.696C47.4417 62.454 47.3611 62.168 47.3611 61.838C47.3611 61.464 47.4674 61.156 47.6801 60.914C47.8927 60.672 48.1714 60.4923 48.5161 60.375C48.8607 60.2503 49.2347 60.188 49.6381 60.188C50.2687 60.188 50.7747 60.3126 51.1561 60.562C51.5447 60.804 51.7391 61.1193 51.7391 61.508C51.7391 61.6693 51.6951 61.8306 51.6071 61.992C51.5191 62.1533 51.3614 62.3073 51.1341 62.454C50.9067 62.6006 50.5841 62.7326 50.1661 62.85C50.2321 62.916 50.3017 62.982 50.3751 63.048C50.4484 63.114 50.5217 63.1836 50.5951 63.257L51.9371 64.555C52.1791 64.181 52.4027 63.7336 52.6081 63.213L51.6401 62.85V62.696H54.1481V62.85L53.2901 63.202C53.1214 63.51 52.9491 63.8033 52.7731 64.082C52.6044 64.3606 52.4284 64.621 52.2451 64.863L53.3671 65.941L54.1041 66.304V66.48H51.3761L50.9581 66.073C50.6867 66.2416 50.3897 66.37 50.0671 66.458C49.7517 66.546 49.4034 66.59 49.0221 66.59ZM49.0551 61.277C49.0551 61.4823 49.1211 61.6803 49.2531 61.871C49.3851 62.0616 49.5611 62.267 49.7811 62.487C49.8764 62.3403 49.9497 62.168 50.0011 61.97C50.0524 61.772 50.0781 61.5666 50.0781 61.354C50.0781 61.1706 50.0377 61.002 49.9571 60.848C49.8837 60.6866 49.7481 60.606 49.5501 60.606C49.3594 60.606 49.2274 60.6756 49.1541 60.815C49.0881 60.9543 49.0551 61.1083 49.0551 61.277ZM48.4061 64.566C48.4061 65.0206 48.5051 65.3726 48.7031 65.622C48.9084 65.864 49.2347 65.985 49.6821 65.985C50.0267 65.985 50.3494 65.9153 50.6501 65.776L48.9121 64.082C48.8534 64.0306 48.7947 63.9793 48.7361 63.928C48.6847 63.8766 48.6334 63.8253 48.5821 63.774C48.4647 64.0086 48.4061 64.2726 48.4061 64.566ZM57.287 66.48V66.304L58.123 65.941V60.859L57.287 60.496V60.32H62.996V62.036H62.82L61.984 60.892H60.158V63.048H61.423L62.05 62.223H62.215V64.357H62.05L61.423 63.543H60.158V65.908H62.182L63.084 64.346H63.26V66.48H57.287ZM63.7057 66.48V66.304L64.5307 65.919L66.6207 63.62L64.5857 60.892L63.8817 60.496V60.32H67.7207V60.496L66.9947 60.848V60.903L68.2377 62.52L69.7227 60.903V60.859L68.9747 60.496V60.32H71.2957V60.496L70.5917 60.826L68.5897 62.993L70.8227 65.908L71.5487 66.304V66.48H67.6657V66.304L68.3367 65.963V65.93L66.9837 64.115L65.3447 65.908L65.3227 65.952L66.0707 66.304V66.48H63.7057ZM71.9931 66.48V66.304L72.8291 65.941V60.859L71.9931 60.496V60.32H75.9091C76.6424 60.32 77.2328 60.452 77.6801 60.716C78.1274 60.9726 78.3511 61.387 78.3511 61.959C78.3511 62.3183 78.2338 62.63 77.9991 62.894C77.7644 63.158 77.4454 63.367 77.0421 63.521C76.6388 63.6676 76.1841 63.741 75.6781 63.741H74.8641V65.941L75.8981 66.304V66.48H71.9931ZM74.8641 60.892V63.246H74.9851C75.4398 63.246 75.7734 63.1396 75.9861 62.927C76.1988 62.707 76.3051 62.4173 76.3051 62.058C76.3051 61.6473 76.1914 61.3503 75.9641 61.167C75.7441 60.9836 75.3958 60.892 74.9191 60.892H74.8641ZM82.3873 66.59C81.72 66.59 81.126 66.4506 80.6053 66.172C80.092 65.8933 79.6886 65.512 79.3953 65.028C79.102 64.544 78.9553 63.9976 78.9553 63.389C78.9553 62.7803 79.102 62.234 79.3953 61.75C79.6886 61.266 80.092 60.8846 80.6053 60.606C81.126 60.3273 81.72 60.188 82.3873 60.188C83.0546 60.188 83.645 60.3273 84.1583 60.606C84.679 60.8846 85.086 61.266 85.3793 61.75C85.6726 62.234 85.8193 62.7803 85.8193 63.389C85.8193 63.9976 85.6726 64.544 85.3793 65.028C85.086 65.512 84.679 65.8933 84.1583 66.172C83.645 66.4506 83.0546 66.59 82.3873 66.59ZM82.5193 66.007C82.7613 66.007 82.9703 65.9043 83.1463 65.699C83.3223 65.4936 83.458 65.215 83.5533 64.863C83.6486 64.511 83.6963 64.1113 83.6963 63.664C83.6963 63.1066 83.634 62.6116 83.5093 62.179C83.392 61.739 83.227 61.3943 83.0143 61.145C82.8016 60.8883 82.5596 60.76 82.2883 60.76C82.0536 60.76 81.8446 60.8626 81.6613 61.068C81.478 61.2733 81.335 61.552 81.2323 61.904C81.137 62.256 81.0893 62.6556 81.0893 63.103C81.0893 63.653 81.1516 64.148 81.2763 64.588C81.401 65.028 81.5696 65.3763 81.7823 65.633C82.0023 65.8823 82.248 66.007 82.5193 66.007ZM86.538 66.48V66.304L87.374 65.941V60.859L86.538 60.496V60.32H90.509C91.1617 60.32 91.6787 60.4483 92.06 60.705C92.4413 60.9616 92.632 61.3173 92.632 61.772C92.632 62.0946 92.5367 62.3733 92.346 62.608C92.1553 62.8353 91.851 63.0223 91.433 63.169L93.105 65.93L93.82 66.304V66.48H91.081L89.618 63.675H89.409V65.93L90.113 66.304V66.48H86.538ZM89.563 60.804H89.409V63.18H89.574C89.9627 63.18 90.234 63.0663 90.388 62.839C90.542 62.6116 90.619 62.3183 90.619 61.959C90.619 61.585 90.5383 61.299 90.377 61.101C90.2157 60.903 89.9443 60.804 89.563 60.804ZM95.0836 66.48V66.304L96.1176 65.941V60.892H94.9736L94.1046 62.564H93.9286V60.32H100.342V62.564H100.177L99.2966 60.892H98.1526V65.941L99.1866 66.304V66.48H95.0836ZM107.432 66.59C106.728 66.59 106.105 66.458 105.562 66.194C105.019 65.93 104.594 65.567 104.286 65.105C103.978 64.643 103.824 64.1113 103.824 63.51C103.824 63.004 103.927 62.5456 104.132 62.135C104.345 61.7243 104.627 61.376 104.979 61.09C105.338 60.804 105.742 60.584 106.189 60.43C106.644 60.276 107.109 60.199 107.586 60.199C107.931 60.199 108.217 60.221 108.444 60.265C108.671 60.3016 108.873 60.353 109.049 60.419C109.225 60.485 109.405 60.562 109.588 60.65L109.72 62.465H109.533L108.433 60.914C108.33 60.8626 108.224 60.826 108.114 60.804C108.011 60.782 107.879 60.771 107.718 60.771C107.388 60.771 107.087 60.8846 106.816 61.112C106.545 61.332 106.328 61.651 106.167 62.069C106.013 62.487 105.936 62.9783 105.936 63.543C105.936 64.2983 106.097 64.8996 106.42 65.347C106.75 65.7943 107.168 66.018 107.674 66.018C107.821 66.018 107.96 66.007 108.092 65.985C108.224 65.963 108.36 65.919 108.499 65.853L109.599 64.445H109.786L109.632 66.084C109.383 66.2453 109.06 66.37 108.664 66.458C108.268 66.546 107.857 66.59 107.432 66.59ZM114.206 66.59C113.538 66.59 112.944 66.4506 112.424 66.172C111.91 65.8933 111.507 65.512 111.214 65.028C110.92 64.544 110.774 63.9976 110.774 63.389C110.774 62.7803 110.92 62.234 111.214 61.75C111.507 61.266 111.91 60.8846 112.424 60.606C112.944 60.3273 113.538 60.188 114.206 60.188C114.873 60.188 115.463 60.3273 115.977 60.606C116.497 60.8846 116.904 61.266 117.198 61.75C117.491 62.234 117.638 62.7803 117.638 63.389C117.638 63.9976 117.491 64.544 117.198 65.028C116.904 65.512 116.497 65.8933 115.977 66.172C115.463 66.4506 114.873 66.59 114.206 66.59ZM114.338 66.007C114.58 66.007 114.789 65.9043 114.965 65.699C115.141 65.4936 115.276 65.215 115.372 64.863C115.467 64.511 115.515 64.1113 115.515 63.664C115.515 63.1066 115.452 62.6116 115.328 62.179C115.21 61.739 115.045 61.3943 114.833 61.145C114.62 60.8883 114.378 60.76 114.107 60.76C113.872 60.76 113.663 60.8626 113.48 61.068C113.296 61.2733 113.153 61.552 113.051 61.904C112.955 62.256 112.908 62.6556 112.908 63.103C112.908 63.653 112.97 64.148 113.095 64.588C113.219 65.028 113.388 65.3763 113.601 65.633C113.821 65.8823 114.066 66.007 114.338 66.007ZM118.356 66.48V66.304L119.192 65.93L119.379 60.848L118.554 60.496V60.32H121.557L123.119 63.928L124.626 60.32H127.552V60.496L126.727 60.749L126.881 65.93L127.629 66.304V66.48H124.054V66.304L124.835 65.941L124.747 61.651L122.69 66.524H122.085L119.973 61.64L119.863 65.941L120.71 66.304V66.48H118.356ZM128.293 66.48V66.304L129.129 65.941V60.859L128.293 60.496V60.32H132.209C132.942 60.32 133.533 60.452 133.98 60.716C134.427 60.9726 134.651 61.387 134.651 61.959C134.651 62.3183 134.534 62.63 134.299 62.894C134.064 63.158 133.745 63.367 133.342 63.521C132.939 63.6676 132.484 63.741 131.978 63.741H131.164V65.941L132.198 66.304V66.48H128.293ZM131.164 60.892V63.246H131.285C131.74 63.246 132.073 63.1396 132.286 62.927C132.499 62.707 132.605 62.4173 132.605 62.058C132.605 61.6473 132.491 61.3503 132.264 61.167C132.044 60.9836 131.696 60.892 131.219 60.892H131.164ZM134.207 66.48V66.304L134.779 65.974L137.232 60.265H138.464L140.862 65.864L141.566 66.304V66.48H138.046V66.304L138.838 65.963L138.255 64.555H136.077L135.494 65.952L136.253 66.304V66.48H134.207ZM136.319 63.983H138.013L137.166 61.97L136.319 63.983ZM142.011 66.48V66.293L142.847 65.93V60.859L142.011 60.496V60.32H144.299L147.918 64.104V60.859L146.763 60.496V60.32H149.447V60.496L148.633 60.859V66.524H147.632L143.562 62.311V65.93L144.717 66.293V66.48H142.011ZM151.749 66.48V66.304L152.585 65.941V63.609L150.605 60.914L149.89 60.496V60.32H153.454V60.496L152.739 60.837V60.87L154.334 63.015L155.764 60.892V60.848L155.016 60.496V60.32H157.238V60.496L156.567 60.815L154.62 63.598V65.941L155.456 66.304V66.48H151.749Z" fill="#485D90"/>
<path d="M90.3364 26.5532C91.1643 25.4421 92.4967 25.4493 93.3125 26.5693C94.1283 27.6893 94.1185 29.498 93.2906 30.6091L89.87 35.1998C89.0421 36.3109 87.7096 36.3037 86.8938 35.1837C86.078 34.0637 86.0879 32.255 86.9157 31.1439L90.3364 26.5532Z" fill="white"/>
<rect width="5.01774" height="40.9058" rx="2.50887" transform="matrix(0.588755 0.808312 -0.59749 0.801876 94.0038 0)" fill="#485D90"/>
<rect width="5.01774" height="40.9058" rx="2.50887" transform="matrix(0.588755 0.808312 -0.59749 0.801876 102.269 0)" fill="#485D90"/>
<rect width="5.01774" height="40.9058" rx="2.50887" transform="matrix(0.588755 0.808312 -0.59749 0.801876 85.2223 0.535034)" fill="#485D90"/>
<rect width="5.15481" height="18.8179" rx="2.57741" transform="matrix(0.57887 -0.81542 0.609234 0.792991 52 22.1904)" fill="#485D90"/>
</svg>
