<svg width="483" height="473" viewBox="0 0 483 473" fill="none" xmlns="http://www.w3.org/2000/svg">
<path d="M366.572 357.912C357.524 367.04 349.439 372.408 343.242 376.462C282.809 415.972 213.731 404.587 192.38 400.699C157.919 394.413 128.835 389.989 103.839 367.882C47.0502 317.637 49.8102 212.825 93.2021 147.905C98.3445 140.204 141.671 77.3119 210.906 68.4511C212.598 68.2344 213.861 68.1069 214.968 67.9921C225.682 66.8829 292.039 61.0183 346.159 105.424C353.905 111.773 366.377 123.248 377.925 140.727C420.197 204.639 420.327 303.651 366.572 357.912Z" fill="url(#paint0_linear)"/>
<path d="M338.907 355.133C321.54 351.805 308.261 326.421 309.524 305.053C310.826 283.061 326.67 280.014 337.801 253.253C350.442 222.858 336.252 211.779 342.774 166.57C344.245 156.371 352.773 97.3411 374.241 94.2813C394.094 91.4509 427.748 136.086 421.317 173.263C416.734 199.769 395.136 202.969 389.876 233.886C385.268 261.004 400.369 267.506 396.164 293.783C391.035 325.733 361.703 359.493 338.907 355.133Z" fill="#BDD0FB"/>
<path d="M334.65 362.017C352.72 331.049 365.479 277.196 373.017 237.469C381.166 194.453 385.098 158.283 385.137 157.926L383.64 157.773C383.601 158.13 379.669 194.262 371.532 237.214C364.02 276.826 351.314 330.501 333.348 361.29L334.65 362.017Z" fill="#F0F0F0"/>
<path d="M260.404 289.295C230.89 280.842 212.247 235.76 224.354 217.58C232.543 205.29 249.468 213.258 261.523 199.82C276.911 182.672 258.36 159.609 265.884 123.579C272.29 92.9044 295.984 60.4573 314.119 62.6502C333.101 64.9451 351.132 105.819 341.12 134.467C334.611 153.094 319.639 156.868 319.496 173.047C319.34 191.814 339.428 196.467 343.06 213.934C349.622 245.271 299.447 300.463 260.404 289.295Z" fill="#91B3FA"/>
<path d="M277.276 298.487C277.12 298.513 276.95 298.513 276.781 298.475C276.182 298.322 275.831 297.722 275.987 297.149C296.947 218.702 290.529 133.677 290.464 132.823C290.412 132.223 290.881 131.701 291.479 131.65C292.091 131.599 292.625 132.045 292.677 132.644C292.742 133.498 299.187 218.893 278.135 297.684C278.018 298.118 277.679 298.411 277.276 298.487Z" fill="url(#paint1_linear)"/>
<path d="M322.582 148.925C322.465 148.95 322.347 148.938 322.243 148.874C321.983 148.746 321.879 148.428 322.009 148.173C330.354 131.93 338.478 108.382 329.794 88.4549C324.626 76.5853 315.825 71.5748 315.747 71.5238C315.486 71.3836 315.408 71.0648 315.552 70.8098C315.695 70.5549 316.02 70.4784 316.281 70.6186C316.658 70.8226 325.472 75.8458 330.784 88.0469C335.666 99.2536 338.269 118.862 322.972 148.644C322.881 148.797 322.738 148.899 322.582 148.925Z" fill="#F0F0F0"/>
<path d="M256.732 283.507C256.563 283.545 256.394 283.494 256.264 283.367C234.08 262.126 224.367 244.264 227.388 230.291C230.07 217.873 242.294 213.283 242.412 213.232C242.685 213.13 242.997 213.271 243.089 213.538C243.193 213.806 243.05 214.112 242.776 214.201C242.659 214.24 230.981 218.651 228.416 230.508C225.487 244.111 235.095 261.642 256.993 282.602C257.201 282.806 257.201 283.137 257.006 283.341C256.928 283.443 256.837 283.494 256.732 283.507Z" fill="#F0F0F0"/>
<path d="M112.053 234.141C112.053 302.796 171.029 358.447 243.791 358.447C316.554 358.447 378.784 300.361 378.784 231.706C378.784 163.051 316.541 109.823 243.791 109.823C171.042 109.823 112.053 165.486 112.053 234.141Z" fill="url(#paint2_linear)"/>
<path d="M368.447 203.913C368.525 203.913 368.603 203.9 368.682 203.887C369.163 203.76 369.463 203.301 369.332 202.842C367.913 197.819 366.104 192.834 363.956 188.027C363.76 187.594 363.227 187.39 362.758 187.568C362.289 187.759 362.081 188.257 362.276 188.69C364.398 193.42 366.182 198.329 367.575 203.275C367.666 203.658 368.044 203.913 368.447 203.913Z" fill="#BDD0FB"/>
<path d="M348.307 165.066C348.502 165.066 348.685 165.015 348.854 164.887C349.257 164.607 349.335 164.058 349.036 163.689C324.626 133.141 285.309 114.91 243.87 114.91C226.164 114.91 209.044 118.301 192.979 124.969C192.523 125.16 192.315 125.67 192.51 126.104C192.705 126.537 193.252 126.728 193.708 126.55C209.539 119.971 226.411 116.631 243.857 116.631C284.736 116.631 323.506 134.607 347.578 164.721C347.76 164.951 348.034 165.066 348.307 165.066Z" fill="#BDD0FB"/>
<path d="M129.981 234.141C129.981 293.566 181.041 341.746 244.013 341.746C306.985 341.746 360.87 291.462 360.87 232.038C360.87 172.613 306.998 126.537 244.013 126.537C181.028 126.537 129.981 174.704 129.981 234.141Z" fill="#BDD0FB"/>
<path d="M129.981 234.141C129.981 174.717 181.041 126.537 244.013 126.537C278.109 126.537 309.55 140.051 331.2 161.878L243.362 230.852L225.305 340.305C171.224 331.865 129.981 287.548 129.981 234.141Z" fill="#BDD0FB"/>
<path d="M145.499 226.657C145.499 280.294 192.536 323.769 250.548 323.769C308.56 323.769 358.201 278.394 358.201 224.758C358.201 171.121 308.573 129.546 250.548 129.546C192.523 129.546 145.499 173.021 145.499 226.657Z" fill="#91B3FA"/>
<path d="M331.721 228.557C332.007 233.121 336.16 236.615 340.99 236.347C345.833 236.079 349.531 232.165 349.244 227.601C348.958 223.037 344.805 219.543 339.975 219.811C335.132 220.066 331.434 223.993 331.721 228.557Z" fill="url(#paint3_linear)"/>
<path opacity="0.78" d="M142.049 238.973C142.335 243.538 146.488 247.031 151.318 246.763C156.161 246.495 159.859 242.581 159.572 238.017C159.286 233.453 155.133 229.96 150.303 230.227C145.46 230.482 141.763 234.409 142.049 238.973Z" fill="white"/>
<path d="M261.146 313.315C256.381 314.131 253.217 318.453 254.09 322.953C254.962 327.454 259.531 330.437 264.309 329.608C269.074 328.792 272.238 324.47 271.366 319.97C270.48 315.469 265.911 312.499 261.146 313.315Z" fill="url(#paint4_linear)"/>
<path d="M226.997 136.953C222.232 137.769 219.069 142.091 219.941 146.592C220.813 151.092 225.383 154.076 230.161 153.247C234.926 152.431 238.089 148.109 237.217 143.608C236.345 139.108 231.775 136.124 226.997 136.953Z" fill="url(#paint5_linear)"/>
<path opacity="0.78" d="M198.72 318.045C197.822 320.174 198.056 322.163 199.215 322.481C200.387 322.813 202.053 321.359 202.938 319.23C203.837 317.101 203.602 315.112 202.444 314.794C201.285 314.475 199.618 315.928 198.72 318.045Z" fill="white"/>
<path d="M275.024 150.774C274.125 152.903 274.36 154.892 275.518 155.21C276.69 155.542 278.357 154.088 279.242 151.959C280.14 149.83 279.906 147.841 278.747 147.522C277.588 147.191 275.922 148.644 275.024 150.774Z" fill="url(#paint6_linear)"/>
<path opacity="0.78" d="M158.882 286.248C156.956 287.625 156.044 289.435 156.864 290.289C157.685 291.144 159.911 290.723 161.838 289.333C163.764 287.956 164.676 286.146 163.856 285.292C163.035 284.45 160.809 284.871 158.882 286.248Z" fill="white"/>
<path d="M316.137 180.671C314.211 182.048 313.299 183.858 314.119 184.712C314.94 185.566 317.166 185.146 319.093 183.756C321.019 182.379 321.931 180.569 321.111 179.715C320.303 178.873 318.077 179.294 316.137 180.671Z" fill="url(#paint7_linear)"/>
<path opacity="0.78" d="M153.883 191.533C151.696 190.551 149.574 190.628 149.157 191.699C148.728 192.77 150.16 194.44 152.347 195.422C154.534 196.403 156.656 196.327 157.073 195.256C157.489 194.185 156.07 192.515 153.883 191.533Z" fill="white"/>
<path opacity="0.78" d="M325.641 274.582C323.454 273.601 321.332 273.677 320.915 274.748C320.486 275.819 321.918 277.489 324.105 278.471C326.292 279.453 328.414 279.376 328.831 278.305C329.26 277.234 327.828 275.564 325.641 274.582Z" fill="white"/>
<path d="M190.167 156.154C188.839 154.241 186.99 153.272 186.027 153.986C185.063 154.7 185.376 156.829 186.704 158.729C188.032 160.642 189.88 161.611 190.844 160.897C191.794 160.195 191.495 158.066 190.167 156.154Z" fill="#91B3FA"/>
<path d="M291.271 311.288C289.943 309.375 288.095 308.406 287.131 309.12C286.168 309.834 286.48 311.951 287.808 313.863C289.136 315.775 290.985 316.744 291.948 316.03C292.898 315.316 292.599 313.187 291.271 311.288Z" fill="url(#paint8_linear)"/>
<path d="M247.554 230.801L318.077 263.988C319.444 264.625 321.045 263.669 320.993 262.228L320.72 253.661C320.668 251.99 322.751 251.072 324.066 252.169L375.061 294.535C376.623 295.835 375.334 298.232 373.303 297.824L307.636 284.603C306.061 284.284 305.501 282.448 306.647 281.378L314.341 274.225C315.291 273.345 315.083 271.841 313.924 271.216L245.653 234.154C244.703 233.644 244.364 232.497 244.885 231.592C245.406 230.699 246.591 230.342 247.554 230.801Z" fill="url(#paint9_linear)"/>
<path opacity="0.72" d="M367.145 294.344C367.796 294.344 368.395 293.999 368.694 293.413C369.059 292.712 368.864 291.921 368.239 291.424L357.082 282.716C356.691 282.41 356.118 282.461 355.806 282.831C355.48 283.201 355.545 283.736 355.923 284.042L367.08 292.75C352.212 289.55 317.387 282.385 316.671 282.321C316.189 282.27 315.721 282.614 315.669 283.086C315.616 283.558 315.968 283.966 316.463 284.029C317.504 284.182 344.193 289.665 366.768 294.305C366.885 294.331 367.015 294.344 367.145 294.344Z" fill="white"/>
<path d="M240.198 227.537L240.341 162.465C240.315 161.024 238.675 160.131 237.334 160.833L229.406 165.002C227.856 165.818 226.034 164.492 226.463 162.873L242.867 100.656C243.375 98.7563 246.226 98.718 246.773 100.618L264.53 161.738C264.96 163.204 263.489 164.517 261.953 164.058L251.681 160.909C250.405 160.514 249.103 161.381 249.038 162.643L244.221 227.601C244.169 228.634 243.258 229.45 242.164 229.424C241.096 229.386 240.224 228.557 240.198 227.537Z" fill="url(#paint10_linear)"/>
<path opacity="0.72" d="M259.089 155.771C259.206 155.771 259.31 155.759 259.427 155.708C259.883 155.542 260.117 155.045 259.948 154.611C259.622 153.668 252.488 128.794 246.473 107.745C246.265 107.005 245.588 106.508 244.755 106.533C243.935 106.559 243.271 107.069 243.101 107.834L240.042 121.182C239.938 121.641 240.25 122.1 240.745 122.202C241.227 122.304 241.721 122.011 241.826 121.539L244.885 108.191C248.713 122.126 257.995 154.586 258.255 155.223C258.386 155.567 258.724 155.771 259.089 155.771Z" fill="white"/>
<path d="M244.599 239.866C249.775 239.866 253.972 235.904 253.972 231.018C253.972 226.131 249.775 222.17 244.599 222.17C239.422 222.17 235.225 226.131 235.225 231.018C235.225 235.904 239.422 239.866 244.599 239.866Z" fill="url(#paint11_linear)"/>
<path d="M147.556 401.591C153.623 402.101 164.129 402.942 172.422 403.299C177.408 403.516 180.272 403.032 181.926 402.394C181.926 402.573 181.913 402.751 181.913 402.904C181.874 403.758 181.171 404.447 180.285 404.485C164.611 405.339 152.151 404.778 147.725 404.523C146.814 404.472 146.267 403.491 146.736 402.726C146.957 402.343 147.243 401.961 147.556 401.591Z" fill="url(#paint12_linear)"/>
<path d="M172.422 403.299C164.129 402.942 153.61 402.114 147.556 401.591C153.518 394.426 172.422 389.606 172.422 389.606H177.76C181.431 394.795 181.965 399.729 181.926 402.381C180.285 403.032 177.408 403.516 172.422 403.299Z" fill="url(#paint13_linear)"/>
<path d="M178.671 381.064L178.176 390.754C178.124 391.799 177.317 392.679 176.249 392.832C175.182 392.985 173.75 392.998 172.24 392.501C171.302 392.195 170.612 391.43 170.443 390.486L168.711 381.052H178.671V381.064Z" fill="url(#paint14_linear)"/>
<path d="M240.667 412.772C243.297 412.313 244.481 410.579 244.989 408.731C244.989 408.743 245.002 408.769 245.002 408.782C245.393 410.732 244.494 412.747 242.698 413.716C240.537 414.876 238.167 415.08 236.319 414.978C234.34 414.876 232.53 413.843 231.541 412.186L231.528 412.16C233.493 413.397 236.279 413.537 240.667 412.772Z" fill="url(#paint15_linear)"/>
<path d="M228.273 384.048H232.673C239.378 383.869 243.596 401.782 244.976 408.718C244.481 410.566 243.283 412.288 240.654 412.759C236.266 413.537 233.493 413.384 231.514 412.147C227.895 406.104 226.099 397.269 225.226 392.105C224.25 386.241 228.273 384.048 228.273 384.048Z" fill="url(#paint16_linear)"/>
<path d="M232.113 375.06L234.561 384.583C234.86 385.756 234.288 386.955 233.181 387.516C231.814 388.204 229.887 388.931 228.117 388.714C227.283 388.612 226.593 388.038 226.32 387.274L222.727 377.252L232.113 375.06Z" fill="url(#paint17_linear)"/>
<path d="M146.059 249.581C146.059 249.581 167.917 383.398 167.553 384.124C167.553 384.124 173.593 386.815 180.168 384.469C180.168 384.469 178.189 312.932 173.554 285.508C173.554 285.508 210.867 349.446 222.714 381.307C222.714 381.307 228.898 380.58 234.001 377.291C234.001 377.291 193.838 262.215 183.11 246.878L146.059 249.581Z" fill="url(#paint18_linear)"/>
<path d="M142.622 156.154C141.059 156.243 139.523 156.536 138.039 157.033C122.013 162.465 109.437 161.101 99.7635 156.817C97.5243 159.736 93.9181 165.792 92.3428 175.979C109.944 188.805 132.089 185.426 139.328 183.845C137.427 197.615 137.453 219.403 145.186 251.34C145.395 252.182 146.124 252.794 147.009 252.87C151.956 253.265 168.516 254.222 184.425 250.715C185.141 250.562 185.532 249.81 185.245 249.147L185.102 248.816C183.774 245.756 183.175 242.454 183.371 239.139C183.943 229.08 186.716 206.348 192.601 190.768C192.94 191.342 193.265 191.89 193.577 192.451C194.645 182.201 198.655 172.129 201.48 161.955C178.423 154.802 151.019 155.669 142.622 156.154Z" fill="url(#paint19_linear)"/>
<path d="M178.58 137.54C178.58 137.54 180.194 154.216 181.613 159.15C181.835 159.902 181.496 160.693 180.806 161.075C178.398 162.427 172.63 164.619 164.741 160.833C163.465 160.221 162.697 158.908 162.749 157.531L163.439 141.416L178.58 137.54Z" fill="url(#paint20_linear)"/>
<path d="M163.074 116.21C163.074 116.21 157.919 127.799 157.58 133.881C157.229 139.962 155.901 143.902 163.074 145.138C170.261 146.362 176.302 142.856 179.582 136.8C179.582 136.8 184.712 127.468 183.566 123.643C182.42 119.818 163.074 116.21 163.074 116.21Z" fill="url(#paint21_linear)"/>
<path d="M177.135 132.44L176.731 132.262C176.21 132.032 175.989 131.433 176.249 130.936C177.265 129.023 179.231 124.625 176.692 123.605C174.283 122.636 171.693 122.1 169.219 121.323C166.928 120.609 162.475 119.856 161.278 117.485C160.926 116.797 161.317 115.993 161.681 115.318C162.384 114.055 163.074 112.806 163.777 111.544C164.363 110.486 164.975 109.389 165.912 108.612C168.06 106.814 170.638 108.395 173.008 108.828C181.86 110.435 187.719 113.941 187.862 119.933C187.875 120.315 188.279 120.519 188.617 120.328C189.268 119.933 190.323 119.754 191.716 120.902C194.15 122.904 193.148 128.105 187.823 132.376C187.576 132.58 187.576 132.963 187.849 133.141C188.812 133.753 190.258 135.219 186.521 137.183C182.655 139.21 179.777 139.044 178.658 138.866C178.384 138.815 178.202 138.56 178.267 138.292L179.452 133.026C179.517 132.733 179.283 132.44 178.97 132.44H177.135Z" fill="url(#paint22_linear)"/>
<path d="M176.914 133.549C176.914 133.549 178.879 126.155 182.264 128.22C185.649 130.298 180.507 136.507 177.786 136.788L176.914 133.549Z" fill="url(#paint23_linear)"/>
<path d="M158.817 118.186C167.24 93.7331 202.196 109.147 190.661 130.451C178.567 125.084 164.48 116.491 158.817 118.186Z" fill="url(#paint24_linear)"/>
<path d="M179.413 124.688L157.45 127.519C156.89 127.595 156.331 127.366 155.992 126.932C153.453 123.783 150.225 122.037 146.436 121.399C145.955 121.323 145.941 120.647 146.41 120.545L159.663 117.511C159.676 117.511 159.689 117.511 159.702 117.498C166.459 116.937 173.034 119.92 179.53 124.178C179.752 124.319 179.673 124.65 179.413 124.688Z" fill="url(#paint25_linear)"/>
<path d="M184.191 248.178C189.229 248.268 193.369 244.303 193.369 239.369V200.139C193.369 194.988 189.138 190.794 183.879 190.73C168.087 190.564 135.513 190.551 108.864 192.757C105.232 193.063 102.393 195.983 102.263 199.553L99.7767 237.482C99.5944 242.492 103.643 246.687 108.76 246.789L184.191 248.178Z" fill="url(#paint26_linear)"/>
<path d="M184.217 204.385C184.282 207.725 184.178 213.016 184.1 216.445C184.061 218.23 182.459 219.582 180.65 219.378L167.657 217.886C165.925 217.682 164.702 216.127 164.962 214.431L166.563 204.015C166.785 202.536 168.087 201.439 169.61 201.439H181.132C182.811 201.427 184.191 202.74 184.217 204.385Z" fill="white"/>
<path opacity="0.37" d="M150.251 224.133L139.406 225.281C137.883 225.446 136.594 224.21 136.711 222.731L139.081 191.151C143.624 191.011 148.103 190.909 152.438 190.832V221.762C152.438 222.973 151.501 224.006 150.251 224.133Z" fill="white"/>
<path d="M145.811 218.664C145.772 219.237 145.304 219.671 144.718 219.671C144.692 219.671 144.679 219.671 144.653 219.671C144.054 219.633 143.598 219.135 143.624 218.549L145.265 190.985C145.994 190.972 146.723 190.947 147.452 190.934L145.811 218.664Z" fill="white"/>
<path d="M178.215 214.329C178.41 214.329 178.567 214.189 178.58 213.997L179.139 205.315C179.152 205.124 178.996 204.945 178.801 204.933C178.593 204.92 178.423 205.073 178.41 205.264L177.851 213.946C177.838 214.138 177.994 214.316 178.189 214.329C178.202 214.329 178.202 214.329 178.215 214.329Z" fill="url(#paint27_linear)"/>
<path d="M177.057 214.329C177.252 214.329 177.408 214.176 177.421 213.985L177.721 205.137C177.721 204.945 177.564 204.78 177.369 204.767C177.135 204.754 177.005 204.92 176.992 205.111L176.692 213.959C176.679 214.163 176.835 214.329 177.057 214.329C177.044 214.329 177.044 214.329 177.057 214.329Z" fill="url(#paint28_linear)"/>
<path d="M175.481 214.329C175.286 214.316 175.13 214.15 175.13 213.959C175.273 210.989 175.546 205.315 175.56 205.124C175.56 204.933 175.729 204.767 175.924 204.767C176.119 204.767 176.289 204.92 176.289 205.124C176.289 205.277 175.937 212.531 175.859 213.985C175.846 214.176 175.69 214.329 175.494 214.329C175.494 214.329 175.494 214.329 175.481 214.329Z" fill="url(#paint29_linear)"/>
<path d="M173.073 214.686C173.464 214.686 173.789 214.38 173.802 213.997C174.114 205.43 174.049 205.226 174.023 205.098C173.919 204.716 173.516 204.499 173.125 204.601C172.774 204.69 172.552 205.035 172.591 205.379C172.617 205.889 172.448 210.887 172.344 213.946C172.331 214.342 172.643 214.673 173.047 214.686C173.06 214.686 173.073 214.686 173.073 214.686Z" fill="url(#paint30_linear)"/>
<path d="M171.498 214.329C171.693 214.329 171.862 214.176 171.862 213.972V205.29C171.862 205.098 171.706 204.933 171.498 204.933C171.302 204.933 171.133 205.086 171.133 205.29V213.972C171.133 214.176 171.302 214.329 171.498 214.329Z" fill="url(#paint31_linear)"/>
<path d="M170.235 214.328C170.43 214.328 170.599 214.175 170.599 213.984C170.664 210.962 170.834 206.041 170.977 205.442C171.042 205.327 171.042 205.187 170.964 205.072C170.86 204.906 170.625 204.868 170.456 204.97C170.261 205.098 170.065 205.212 169.87 213.958C169.857 214.162 170.026 214.328 170.235 214.328Z" fill="url(#paint32_linear)"/>
<path d="M180.168 215.119C180.559 215.119 180.871 214.826 180.897 214.444L181.379 205.328C181.405 204.933 181.092 204.601 180.689 204.576C180.311 204.55 179.947 204.856 179.921 205.251L179.439 214.367C179.413 214.762 179.725 215.094 180.129 215.119C180.142 215.119 180.155 215.119 180.168 215.119Z" fill="url(#paint33_linear)"/>
<path d="M157.372 192.196C161.147 192.273 164.233 189.289 164.233 185.592V156.23C164.233 152.367 161.069 149.231 157.125 149.193C145.304 149.065 120.919 149.065 100.961 150.71C98.2403 150.939 96.1182 153.119 96.0271 155.797L94.1654 184.189C94.0222 187.951 97.0556 191.087 100.896 191.151L157.372 192.196Z" fill="url(#paint34_linear)"/>
<path d="M157.398 159.405C157.45 161.904 157.372 165.869 157.307 168.431C157.281 169.77 156.083 170.777 154.729 170.624L145.004 169.502C143.702 169.349 142.791 168.189 142.986 166.914L144.184 159.112C144.353 158.002 145.33 157.186 146.475 157.186H155.094C156.344 157.199 157.372 158.181 157.398 159.405Z" fill="white"/>
<path opacity="0.37" d="M131.972 174.194L123.861 175.048C122.729 175.163 121.752 174.245 121.844 173.136L123.614 149.486C127.012 149.384 130.371 149.307 133.613 149.244V172.396C133.6 173.327 132.897 174.092 131.972 174.194Z" fill="white"/>
<path d="M128.639 170.089C128.613 170.509 128.249 170.841 127.819 170.841C127.806 170.841 127.793 170.841 127.767 170.841C127.312 170.815 126.973 170.433 126.999 169.999L128.223 149.358C128.77 149.346 129.316 149.333 129.863 149.32L128.639 170.089Z" fill="white"/>
<path d="M152.894 166.85C153.037 166.85 153.154 166.748 153.167 166.595L153.584 160.093C153.597 159.94 153.48 159.825 153.323 159.813C153.167 159.8 153.05 159.915 153.037 160.068L152.62 166.57C152.607 166.723 152.725 166.838 152.881 166.85H152.894Z" fill="url(#paint35_linear)"/>
<path d="M152.034 166.85C152.178 166.85 152.308 166.736 152.308 166.595L152.529 159.966C152.529 159.813 152.412 159.698 152.269 159.685C152.099 159.672 151.995 159.8 151.982 159.94L151.761 166.57C151.748 166.723 151.865 166.85 152.034 166.85C152.021 166.85 152.021 166.85 152.034 166.85Z" fill="url(#paint36_linear)"/>
<path d="M150.849 166.85C150.693 166.838 150.589 166.723 150.589 166.57C150.693 164.339 150.902 160.106 150.902 159.953C150.902 159.813 151.019 159.685 151.175 159.685C151.331 159.685 151.448 159.8 151.448 159.953C151.448 160.068 151.188 165.499 151.136 166.595C151.136 166.748 151.019 166.85 150.849 166.85C150.863 166.85 150.863 166.85 150.849 166.85Z" fill="url(#paint37_linear)"/>
<path d="M149.053 167.118C149.34 167.118 149.587 166.889 149.6 166.608C149.834 160.195 149.795 160.042 149.769 159.953C149.691 159.672 149.392 159.507 149.105 159.583C148.845 159.66 148.676 159.902 148.715 160.17C148.728 160.552 148.61 164.288 148.532 166.583C148.519 166.876 148.754 167.118 149.053 167.131C149.04 167.118 149.053 167.118 149.053 167.118Z" fill="url(#paint38_linear)"/>
<path d="M147.868 166.85C148.024 166.85 148.142 166.736 148.142 166.583V160.08C148.142 159.927 148.024 159.813 147.868 159.813C147.712 159.813 147.595 159.927 147.595 160.08V166.583C147.608 166.736 147.725 166.85 147.868 166.85Z" fill="url(#paint39_linear)"/>
<path d="M146.918 166.85C147.061 166.85 147.191 166.735 147.191 166.595C147.243 164.338 147.361 160.654 147.478 160.207C147.53 160.118 147.53 160.016 147.465 159.927C147.387 159.799 147.217 159.774 147.087 159.85C146.944 159.94 146.801 160.042 146.645 166.582C146.645 166.722 146.762 166.85 146.918 166.85Z" fill="url(#paint40_linear)"/>
<path d="M154.365 167.45C154.651 167.45 154.898 167.233 154.912 166.94L155.276 160.119C155.289 159.825 155.055 159.571 154.755 159.558C154.469 159.532 154.195 159.774 154.182 160.068L153.818 166.889C153.805 167.182 154.039 167.437 154.339 167.45C154.339 167.45 154.352 167.45 154.365 167.45Z" fill="url(#paint41_linear)"/>
<path d="M91.5096 166.162C93.163 165.767 96.8994 160.833 97.29 162.63C97.6806 164.428 96.561 166.723 96.7302 167.488C96.8994 168.253 98.1493 172.549 97.1598 174.36C96.4438 175.66 95.0377 179.753 94.3087 181.933C94.0613 182.66 93.866 183.616 93.0979 183.527C92.3298 183.437 91.7309 182.43 91.6528 181.665C91.6268 181.359 89.8562 166.57 91.5096 166.162Z" fill="url(#paint42_linear)"/>
<path d="M210.372 172.256C208.328 167.666 201.819 162.069 201.48 161.967C198.655 172.129 193.669 180.53 192.601 190.768C199.579 203.326 197.978 218.141 193.617 225.344C195.765 228.468 198.265 232.713 200.439 237.992C227.297 222.259 216.66 186.395 210.372 172.256Z" fill="url(#paint43_linear)"/>
<path d="M175.898 249.377L152.659 248.88C152.659 248.88 172.93 243.27 174.179 244.8C174.179 244.8 186.743 236.717 193.63 225.344C195.778 228.468 198.277 232.713 200.451 237.992C194.28 241.536 186.17 247.707 175.898 249.377Z" fill="url(#paint44_linear)"/>
<path d="M176.549 245.437C176.549 245.437 177.031 254.502 164.871 253.189C158.27 252.475 147.595 246.445 147.595 246.445C147.595 246.445 175.403 246.368 176.549 245.437Z" fill="url(#paint45_linear)"/>
<defs>
<linearGradient id="paint0_linear" x1="440.135" y1="460.38" x2="200.562" y2="199.959" gradientUnits="userSpaceOnUse">
<stop stop-color="#DAE3FE"/>
<stop offset="1" stop-color="#E9EFFD"/>
</linearGradient>
<linearGradient id="paint1_linear" x1="285.568" y1="131.609" x2="284.352" y2="298.561" gradientUnits="userSpaceOnUse">
<stop stop-color="#09005D"/>
<stop offset="1" stop-color="#1A0F91"/>
</linearGradient>
<linearGradient id="paint2_linear" x1="313.635" y1="142.804" x2="468.43" y2="-69.6803" gradientUnits="userSpaceOnUse">
<stop stop-color="#4F52FF"/>
<stop offset="1" stop-color="#4042E2"/>
</linearGradient>
<linearGradient id="paint3_linear" x1="356.877" y1="200.288" x2="522.782" y2="-92.9601" gradientUnits="userSpaceOnUse">
<stop stop-color="#3E30CB"/>
<stop offset="1" stop-color="#1D129D"/>
</linearGradient>
<linearGradient id="paint4_linear" x1="339.877" y1="190.671" x2="505.781" y2="-102.576" gradientUnits="userSpaceOnUse">
<stop stop-color="#3E30CB"/>
<stop offset="1" stop-color="#1D129D"/>
</linearGradient>
<linearGradient id="paint5_linear" x1="236.275" y1="132.057" x2="402.181" y2="-161.19" gradientUnits="userSpaceOnUse">
<stop stop-color="#3E30CB"/>
<stop offset="1" stop-color="#1D129D"/>
</linearGradient>
<linearGradient id="paint6_linear" x1="275.457" y1="154.225" x2="441.361" y2="-139.023" gradientUnits="userSpaceOnUse">
<stop stop-color="#3E30CB"/>
<stop offset="1" stop-color="#1D129D"/>
</linearGradient>
<linearGradient id="paint7_linear" x1="319.45" y1="179.114" x2="485.355" y2="-114.134" gradientUnits="userSpaceOnUse">
<stop stop-color="#3E30CB"/>
<stop offset="1" stop-color="#1D129D"/>
</linearGradient>
<linearGradient id="paint8_linear" x1="289.542" y1="182.719" x2="289.542" y2="266.982" gradientUnits="userSpaceOnUse">
<stop stop-color="#3E30CB"/>
<stop offset="1" stop-color="#1D129D"/>
</linearGradient>
<linearGradient id="paint9_linear" x1="587.644" y1="43.7064" x2="282.247" y2="296.836" gradientUnits="userSpaceOnUse">
<stop stop-color="#FF928E"/>
<stop offset="1" stop-color="#FE7062"/>
</linearGradient>
<linearGradient id="paint10_linear" x1="511.229" y1="-48.4867" x2="205.832" y2="204.642" gradientUnits="userSpaceOnUse">
<stop stop-color="#FF928E"/>
<stop offset="1" stop-color="#FE7062"/>
</linearGradient>
<linearGradient id="paint11_linear" x1="328.202" y1="128.407" x2="264.675" y2="209.711" gradientUnits="userSpaceOnUse">
<stop stop-color="#FF928E"/>
<stop offset="0.6733" stop-color="#FE7B70"/>
<stop offset="1" stop-color="#FE7062"/>
</linearGradient>
<linearGradient id="paint12_linear" x1="181.933" y1="403.268" x2="146.555" y2="403.268" gradientUnits="userSpaceOnUse">
<stop stop-color="#4F52FF"/>
<stop offset="1" stop-color="#4042E2"/>
</linearGradient>
<linearGradient id="paint13_linear" x1="181.935" y1="396.478" x2="147.554" y2="396.478" gradientUnits="userSpaceOnUse">
<stop stop-color="#09005D"/>
<stop offset="1" stop-color="#1A0F91"/>
</linearGradient>
<linearGradient id="paint14_linear" x1="178.667" y1="386.999" x2="168.701" y2="386.999" gradientUnits="userSpaceOnUse">
<stop stop-color="#FEBBBA"/>
<stop offset="1" stop-color="#FF928E"/>
</linearGradient>
<linearGradient id="paint15_linear" x1="245.077" y1="411.859" x2="231.52" y2="411.859" gradientUnits="userSpaceOnUse">
<stop stop-color="#4F52FF"/>
<stop offset="1" stop-color="#4042E2"/>
</linearGradient>
<linearGradient id="paint16_linear" x1="244.978" y1="398.647" x2="225.079" y2="398.647" gradientUnits="userSpaceOnUse">
<stop stop-color="#09005D"/>
<stop offset="1" stop-color="#1A0F91"/>
</linearGradient>
<linearGradient id="paint17_linear" x1="234.635" y1="381.91" x2="222.726" y2="381.91" gradientUnits="userSpaceOnUse">
<stop stop-color="#FEBBBA"/>
<stop offset="1" stop-color="#FF928E"/>
</linearGradient>
<linearGradient id="paint18_linear" x1="296.875" y1="112.671" x2="203.537" y2="295.566" gradientUnits="userSpaceOnUse">
<stop stop-color="#09005D"/>
<stop offset="1" stop-color="#1A0F91"/>
</linearGradient>
<linearGradient id="paint19_linear" x1="92.3399" y1="204.567" x2="201.48" y2="204.567" gradientUnits="userSpaceOnUse">
<stop stop-color="#090056"/>
<stop offset="1" stop-color="#020039"/>
</linearGradient>
<linearGradient id="paint20_linear" x1="175.963" y1="175.086" x2="171.007" y2="148.517" gradientUnits="userSpaceOnUse">
<stop stop-color="#FEBBBA"/>
<stop offset="1" stop-color="#FF928E"/>
</linearGradient>
<linearGradient id="paint21_linear" x1="162" y1="126.411" x2="190.985" y2="149.058" gradientUnits="userSpaceOnUse">
<stop stop-color="#FEBBBA"/>
<stop offset="1" stop-color="#FF928E"/>
</linearGradient>
<linearGradient id="paint22_linear" x1="185.785" y1="111.27" x2="159.076" y2="146.384" gradientUnits="userSpaceOnUse">
<stop stop-color="#09005D"/>
<stop offset="1" stop-color="#1A0F91"/>
</linearGradient>
<linearGradient id="paint23_linear" x1="165.652" y1="121.737" x2="194.637" y2="144.383" gradientUnits="userSpaceOnUse">
<stop stop-color="#FEBBBA"/>
<stop offset="1" stop-color="#FF928E"/>
</linearGradient>
<linearGradient id="paint24_linear" x1="256.462" y1="76.0963" x2="184.875" y2="117.432" gradientUnits="userSpaceOnUse">
<stop stop-color="#FF928E"/>
<stop offset="1" stop-color="#FE7062"/>
</linearGradient>
<linearGradient id="paint25_linear" x1="254.148" y1="72.0915" x2="182.561" y2="113.427" gradientUnits="userSpaceOnUse">
<stop stop-color="#FF928E"/>
<stop offset="1" stop-color="#FE7062"/>
</linearGradient>
<linearGradient id="paint26_linear" x1="285.685" y1="125.837" x2="101.098" y2="257.341" gradientUnits="userSpaceOnUse">
<stop stop-color="#FF928E"/>
<stop offset="1" stop-color="#FE7062"/>
</linearGradient>
<linearGradient id="paint27_linear" x1="174.097" y1="203.378" x2="196.707" y2="236.928" gradientUnits="userSpaceOnUse">
<stop stop-color="#09005D"/>
<stop offset="1" stop-color="#1A0F91"/>
</linearGradient>
<linearGradient id="paint28_linear" x1="173.26" y1="203.942" x2="195.869" y2="237.494" gradientUnits="userSpaceOnUse">
<stop stop-color="#09005D"/>
<stop offset="1" stop-color="#1A0F91"/>
</linearGradient>
<linearGradient id="paint29_linear" x1="172.251" y1="204.622" x2="194.861" y2="238.172" gradientUnits="userSpaceOnUse">
<stop stop-color="#09005D"/>
<stop offset="1" stop-color="#1A0F91"/>
</linearGradient>
<linearGradient id="paint30_linear" x1="170.505" y1="205.799" x2="193.115" y2="239.349" gradientUnits="userSpaceOnUse">
<stop stop-color="#09005D"/>
<stop offset="1" stop-color="#1A0F91"/>
</linearGradient>
<linearGradient id="paint31_linear" x1="169.353" y1="206.575" x2="191.964" y2="240.126" gradientUnits="userSpaceOnUse">
<stop stop-color="#09005D"/>
<stop offset="1" stop-color="#1A0F91"/>
</linearGradient>
<linearGradient id="paint32_linear" x1="168.639" y1="207.056" x2="191.25" y2="240.605" gradientUnits="userSpaceOnUse">
<stop stop-color="#09005D"/>
<stop offset="1" stop-color="#1A0F91"/>
</linearGradient>
<linearGradient id="paint33_linear" x1="175.294" y1="202.572" x2="197.905" y2="236.121" gradientUnits="userSpaceOnUse">
<stop stop-color="#09005D"/>
<stop offset="1" stop-color="#1A0F91"/>
</linearGradient>
<linearGradient id="paint34_linear" x1="246.117" y1="91.8859" x2="107.935" y2="190.33" gradientUnits="userSpaceOnUse">
<stop stop-color="#FF928E"/>
<stop offset="1" stop-color="#FE7062"/>
</linearGradient>
<linearGradient id="paint35_linear" x1="149.817" y1="158.655" x2="166.743" y2="183.772" gradientUnits="userSpaceOnUse">
<stop stop-color="#09005D"/>
<stop offset="1" stop-color="#1A0F91"/>
</linearGradient>
<linearGradient id="paint36_linear" x1="149.191" y1="159.077" x2="166.117" y2="184.193" gradientUnits="userSpaceOnUse">
<stop stop-color="#09005D"/>
<stop offset="1" stop-color="#1A0F91"/>
</linearGradient>
<linearGradient id="paint37_linear" x1="148.435" y1="159.586" x2="165.361" y2="184.703" gradientUnits="userSpaceOnUse">
<stop stop-color="#09005D"/>
<stop offset="1" stop-color="#1A0F91"/>
</linearGradient>
<linearGradient id="paint38_linear" x1="147.128" y1="160.467" x2="164.054" y2="185.583" gradientUnits="userSpaceOnUse">
<stop stop-color="#09005D"/>
<stop offset="1" stop-color="#1A0F91"/>
</linearGradient>
<linearGradient id="paint39_linear" x1="146.266" y1="161.048" x2="163.192" y2="186.164" gradientUnits="userSpaceOnUse">
<stop stop-color="#09005D"/>
<stop offset="1" stop-color="#1A0F91"/>
</linearGradient>
<linearGradient id="paint40_linear" x1="145.731" y1="161.408" x2="162.657" y2="186.525" gradientUnits="userSpaceOnUse">
<stop stop-color="#09005D"/>
<stop offset="1" stop-color="#1A0F91"/>
</linearGradient>
<linearGradient id="paint41_linear" x1="150.713" y1="158.051" x2="167.639" y2="183.167" gradientUnits="userSpaceOnUse">
<stop stop-color="#09005D"/>
<stop offset="1" stop-color="#1A0F91"/>
</linearGradient>
<linearGradient id="paint42_linear" x1="103.252" y1="143.798" x2="61.3137" y2="272.263" gradientUnits="userSpaceOnUse">
<stop stop-color="#FEBBBA"/>
<stop offset="1" stop-color="#FF928E"/>
</linearGradient>
<linearGradient id="paint43_linear" x1="192.605" y1="199.982" x2="217.839" y2="199.982" gradientUnits="userSpaceOnUse">
<stop stop-color="#090056"/>
<stop offset="1" stop-color="#020039"/>
</linearGradient>
<linearGradient id="paint44_linear" x1="-599.184" y1="-1699.57" x2="-642.764" y2="-1813.39" gradientUnits="userSpaceOnUse">
<stop stop-color="#FEBBBA"/>
<stop offset="1" stop-color="#FF928E"/>
</linearGradient>
<linearGradient id="paint45_linear" x1="171.183" y1="223.927" x2="214.761" y2="110.109" gradientUnits="userSpaceOnUse">
<stop stop-color="#FEBBBA"/>
<stop offset="1" stop-color="#FF928E"/>
</linearGradient>
</defs>
</svg>
